<?xml version="1.0" encoding="UTF-8"?>
<svg version="1.1" xmlns="http://www.w3.org/2000/svg" width="228" height="311">
<path d="M0 0 C1.46249463 -0.00368925 2.92498401 -0.01154291 4.38743591 -0.02331543 C7.43592738 -0.03339256 10.47940932 0.00189086 13.52709961 0.07128906 C17.40868109 0.15667693 21.28073756 0.13462855 25.16256809 0.07924652 C28.17730081 0.04706022 31.18985259 0.06873157 34.20445061 0.10639954 C35.63354699 0.11864614 37.06287066 0.11553467 38.49188423 0.09587097 C44.80050709 0.03675659 49.68944338 0.12666064 54.75387573 4.13696289 C61.02082761 10.56473986 62.7727244 14.91248337 62.84570312 23.75244141 C62.86278824 25.16737885 62.86278824 25.16737885 62.88021851 26.61090088 C62.99091262 36.48611814 63.03830996 46.36208591 63.08105469 56.23779297 C63.10332369 60.92306169 63.14508195 65.60753314 63.20410156 70.29248047 C63.27522144 75.94885307 63.31189203 81.60447566 63.32417297 87.26127243 C63.3345691 89.41505427 63.35698256 91.56881365 63.39176941 93.72233963 C63.43804491 96.74367534 63.43996753 99.76207904 63.43164062 102.78369141 C63.46703445 104.11039352 63.46703445 104.11039352 63.50314331 105.46389771 C63.42111991 111.6349831 61.64807509 114.64740024 57.32793427 119.02254295 C56.7646769 119.56166628 56.20141953 120.1007896 55.62109375 120.65625 C54.93144531 121.43613281 54.24179688 122.21601563 53.53125 123.01953125 C44.90012233 132.12509723 31.59074671 142.57656121 19.62109375 146.65625 C14.4999343 146.46009068 10.69441044 144.30140823 6.43359375 141.65625 C5.77431885 141.25108154 5.11504395 140.84591309 4.43579102 140.4284668 C-1.00652732 137.01553232 -6.02058977 133.30727801 -10.80708504 129.0140667 C-12.4633111 127.58333693 -14.18059144 126.25716589 -15.91075134 124.91712952 C-22.50444772 119.49258667 -27.00103812 114.7072775 -27.98879337 105.98319149 C-28.26261849 101.00924022 -28.23167466 96.06854961 -28.1328125 91.08984375 C-28.13462908 88.92138329 -28.14105714 86.75292233 -28.15184021 84.58448792 C-28.15890561 80.06040658 -28.11739814 75.54023819 -28.03930664 71.0168457 C-27.94267562 65.24993908 -27.95756801 59.48986395 -28.0077219 53.722579 C-28.03596222 49.25132468 -28.01002352 44.78162802 -27.96769524 40.31053352 C-27.95293145 38.18614801 -27.95331574 36.0615959 -27.96985054 33.93722343 C-28.02043341 23.15555091 -27.95415467 13.54958819 -20.27775002 5.28008175 C-14.36745169 -0.07098966 -7.67167211 -0.19768543 0 0 Z M5.62109375 48.65625 C4.63073164 49.66579588 3.63242409 50.6677102 2.62109375 51.65625 C1.96109375 52.31625 1.30109375 52.97625 0.62109375 53.65625 C1.36166016 54.37941406 1.36166016 54.37941406 2.1171875 55.1171875 C2.75785156 55.74882812 3.39851563 56.38046875 4.05859375 57.03125 C5.01572266 57.97097656 5.01572266 57.97097656 5.9921875 58.9296875 C9.42235842 62.56550416 8.93928091 66.21538535 8.921875 71.0078125 C8.51726567 75.91567115 7.36522418 80.49022875 6.04418945 85.22314453 C5.11457014 88.55486701 4.62109375 91.15654303 4.62109375 94.65625 C13.53109375 94.65625 22.44109375 94.65625 31.62109375 94.65625 C30.49138156 89.00768907 29.38041258 83.61989217 27.93359375 78.09375 C26.72901691 72.77613616 25.62610327 67.8845009 27.62109375 62.65625 C29.69840542 59.70141048 32.01609714 57.15242169 34.62109375 54.65625 C33.09347388 51.02815281 30.91502236 48.71278702 28.12109375 45.96875 C27.32703125 45.18113281 26.53296875 44.39351562 25.71484375 43.58203125 C22.60163278 40.71857414 20.11978874 40.07833298 15.84375 40.109375 C11.29075458 41.22961992 8.58373984 45.23878404 5.62109375 48.65625 Z " fill="#A61A21" transform="translate(98.37890625,107.34375)"/>
<path d="M0 0 C20.37057684 -0.55179892 37.79349772 5.28436653 52.8984375 19.15625 C54.15914062 20.26226562 54.15914062 20.26226562 55.4453125 21.390625 C68.75867656 33.7357444 76.53966924 51.30610726 77.3125 69.37890625 C77.39148338 71.99193981 77.4616101 74.60525424 77.5234375 77.21875 C77.56170721 78.5748924 77.60076383 79.93101282 77.640625 81.28710938 C77.73427857 84.57669104 77.8200061 87.86627612 77.8984375 91.15625 C70.85261625 92.85830523 65.00720057 89.54590942 58.8984375 86.15625 C54.17072653 83.00044293 49.4015913 79.71605736 46.48178101 74.7437439 C43.66623478 70.2760285 41.55716783 67.58378539 36.32131958 66.23425293 C31.86134307 65.77492913 27.40600516 65.87360309 22.9296875 65.9609375 C21.28200743 65.95714586 19.63433215 65.94894906 17.98669434 65.93655396 C13.67201189 65.91582736 9.35987638 65.95454076 5.04553223 66.00604248 C0.63449323 66.04804753 -3.77632593 66.03328637 -8.1875 66.0234375 C-16.82630323 66.01244814 -25.46324415 66.06431025 -34.1015625 66.15625 C-34.4001416 66.93637451 -34.6987207 67.71649902 -35.00634766 68.52026367 C-39.14218157 78.4744765 -49.76717503 85.22649518 -59.17578125 89.578125 C-66.94789865 92.60810935 -66.94789865 92.60810935 -71.1015625 91.15625 C-71.16218073 85.15504504 -71.15626938 79.15746705 -71.1015625 73.15625 C-71.09769531 72.01542969 -71.09382813 70.87460938 -71.08984375 69.69921875 C-70.37705359 50.55220021 -61.28258125 34.56105514 -48.1015625 21.15625 C-47.41449219 20.45628906 -46.72742188 19.75632812 -46.01953125 19.03515625 C-33.24427418 6.87614534 -17.44397074 0.87878946 0 0 Z M-20.1015625 17.15625 C-21.4009375 17.6821875 -21.4009375 17.6821875 -22.7265625 18.21875 C-37.94061673 25.0650744 -48.88053574 37.90407536 -55.1015625 53.15625 C-57.72435611 60.86627348 -58.53283851 68.04187175 -58.1015625 76.15625 C-50.42369046 72.63722532 -45.71137164 66.62206418 -41.4921875 59.40234375 C-40.1015625 57.15625 -40.1015625 57.15625 -38.1015625 56.15625 C-35.49048771 56.00597741 -32.90397349 55.91487694 -30.29052734 55.86816406 C-29.48378571 55.85034882 -28.67704407 55.83253357 -27.84585571 55.81417847 C-20.39644645 55.65963411 -12.94573044 55.57226613 -5.49507713 55.50418472 C-0.49018055 55.45800427 4.51237571 55.39059666 9.51611328 55.27148438 C14.35568514 55.15670318 19.1931569 55.0962841 24.03400803 55.0736618 C25.8753816 55.05590954 27.71667717 55.01913111 29.55727005 54.96265411 C43.97128719 54.54128105 43.97128719 54.54128105 48.76385498 58.55749512 C50.80686583 61.3427221 52.37422904 64.06408224 53.8984375 67.15625 C56.92068602 71.51541078 59.94607607 74.08316847 64.8984375 76.15625 C65.06530876 70.60623546 64.62021196 65.67299786 63.2109375 60.28125 C62.94083862 59.23698853 62.94083862 59.23698853 62.6652832 58.17163086 C58.1112841 41.39711813 46.91333651 28.52031138 32.0234375 19.78125 C16.24791177 11.04569252 -3.4552453 10.12780496 -20.1015625 17.15625 Z " fill="#83141B" transform="translate(113.1015625,35.84375)"/>
<path d="M0 0 C0.99 0.33 1.98 0.66 3 1 C8.59381292 33.33496736 0.12530819 69.3144944 -18.6875 96.125 C-31.77033506 114.02502025 -53.65994577 136.40454716 -76 142 C-81.92429543 142.55274527 -85.60326722 141.2120889 -90.6875 138.5 C-91.73623291 137.95424316 -91.73623291 137.95424316 -92.80615234 137.39746094 C-122.9906257 121.3975503 -146.06093768 95.44920627 -157 63 C-161.45344958 48.27018856 -163.34095124 33.76091831 -163.25 18.375 C-163.25714609 17.01431925 -163.26495572 15.65364183 -163.2734375 14.29296875 C-163.27085937 13.00777344 -163.26828125 11.72257813 -163.265625 10.3984375 C-163.26336914 9.24005371 -163.26111328 8.08166992 -163.25878906 6.88818359 C-163 4 -163 4 -161 1 C-160.34 1 -159.68 1 -159 1 C-158.96036133 1.69859131 -158.92072266 2.39718262 -158.87988281 3.11694336 C-158.04781136 17.11160374 -156.97591404 30.52606908 -153 44 C-152.81566406 44.639375 -152.63132812 45.27875 -152.44140625 45.9375 C-146.99436991 64.57012087 -137.31736392 80.16730071 -125 95 C-124.52175781 95.61359375 -124.04351562 96.2271875 -123.55078125 96.859375 C-119.10018664 102.41943016 -113.58953372 106.63546908 -108 111 C-107.05898437 111.75667969 -106.11796875 112.51335937 -105.1484375 113.29296875 C-99.70155973 117.55797682 -94.11151802 121.28768725 -88.0625 124.625 C-87.43569336 124.98021729 -86.80888672 125.33543457 -86.16308594 125.70141602 C-83.51400284 127.10611406 -81.49429273 128.01373035 -78.46875 127.9296875 C-51.35991198 117.72097951 -26.47393664 91.47107871 -14.25 65.6875 C-13.10686728 63.14761028 -12.03603391 60.58529719 -11 58 C-10.73203613 57.33194336 -10.46407227 56.66388672 -10.18798828 55.97558594 C-3.25312335 38.17177458 -0.55966166 19.02849648 0 0 Z " fill="#621013" transform="translate(196,132)"/>
<path d="M0 0 C20.33788354 -0.55091332 37.83474359 5.26502634 52.8984375 19.15625 C53.77371094 19.95160156 54.64898437 20.74695313 55.55078125 21.56640625 C67.68361011 33.09348448 67.68361011 33.09348448 68.015625 40.91796875 C67.95761719 42.02591797 67.95761719 42.02591797 67.8984375 43.15625 C66.9084375 43.48625 65.9184375 43.81625 64.8984375 44.15625 C64.5684375 43.49625 64.2384375 42.83625 63.8984375 42.15625 C63.4034375 43.14625 63.4034375 43.14625 62.8984375 44.15625 C60.9184375 43.66125 60.9184375 43.66125 58.8984375 43.15625 C59.2284375 41.83625 59.5584375 40.51625 59.8984375 39.15625 C57.9184375 39.81625 55.9384375 40.47625 53.8984375 41.15625 C53.56972656 40.6715625 53.24101562 40.186875 52.90234375 39.6875 C44.30486084 27.57180592 31.13370475 17.58546136 16.35546875 14.55859375 C3.76816752 13.09363101 -8.27420462 13.16247667 -20.1015625 18.15625 C-20.9678125 18.506875 -21.8340625 18.8575 -22.7265625 19.21875 C-30.49377 22.71399337 -38.06421265 28.07588567 -43.171875 34.9375 C-43.80867188 35.6696875 -44.44546875 36.401875 -45.1015625 37.15625 C-46.4215625 37.15625 -47.7415625 37.15625 -49.1015625 37.15625 C-49.3284375 37.713125 -49.5553125 38.27 -49.7890625 38.84375 C-51.46053016 41.78871684 -53.65432602 43.83781544 -56.1015625 46.15625 C-56.7615625 45.49625 -57.4215625 44.83625 -58.1015625 44.15625 C-59.0915625 44.15625 -60.0815625 44.15625 -61.1015625 44.15625 C-61.4315625 45.14625 -61.7615625 46.13625 -62.1015625 47.15625 C-62.7615625 46.49625 -63.4215625 45.83625 -64.1015625 45.15625 C-62.99105687 35.83593493 -54.33148332 27.4903501 -48.1015625 21.15625 C-47.41320312 20.455 -46.72484375 19.75375 -46.015625 19.03125 C-33.24142915 6.87439447 -17.44151467 0.87866573 0 0 Z " fill="#C32129" transform="translate(113.1015625,35.84375)"/>
<path d="M0 0 C4.01622608 0.72473253 7.85058588 1.80018027 11.75 3 C12.89984375 3.350625 14.0496875 3.70125 15.234375 4.0625 C18 5 18 5 19 6 C20.53685261 24.40649058 14.15487408 41.48357515 7.8125 58.375 C7.46751465 59.29740479 7.1225293 60.21980957 6.76708984 61.17016602 C6.43789551 62.02924561 6.10870117 62.8883252 5.76953125 63.7734375 C5.47667236 64.54091309 5.18381348 65.30838867 4.88208008 66.09912109 C4 68 4 68 2 70 C1.01 70 0.02 70 -1 70 C-1.02314123 61.16844684 -1.0409242 52.33690406 -1.05181217 43.50532722 C-1.05703709 39.40474504 -1.06412768 35.30418355 -1.07543945 31.20361328 C-1.08628218 27.24845043 -1.09227979 23.29330752 -1.09487724 19.33813095 C-1.09672898 17.82701173 -1.10034482 16.31589363 -1.10573006 14.80478287 C-1.11295886 12.69291042 -1.11399016 10.58112105 -1.11352539 8.46923828 C-1.115746 7.26566681 -1.11796661 6.06209534 -1.12025452 4.822052 C-1 2 -1 2 0 0 Z " fill="#6F181C" transform="translate(172,130)"/>
<path d="M0 0 C1.0241225 8.04652126 1.13082822 15.99821582 1.09765625 24.1015625 C1.0962413 25.41917572 1.09482635 26.73678894 1.09336853 28.09432983 C1.08958728 31.56302865 1.07979562 35.03168424 1.06866455 38.50036621 C1.0583549 42.05362361 1.05385063 45.60688814 1.04882812 49.16015625 C1.03816849 56.10678836 1.02114623 63.05339209 1 70 C-0.32 70 -1.64 70 -3 70 C-10.07530974 53.96382844 -17.05592499 37.57050072 -19 20 C-19.13277344 18.91460937 -19.26554687 17.82921875 -19.40234375 16.7109375 C-20.28248842 8.42373263 -20.28248842 8.42373263 -18 5 C-15.51139835 3.97629944 -13.12103299 3.10918337 -10.5625 2.3125 C-9.88123047 2.08755859 -9.19996094 1.86261719 -8.49804688 1.63085938 C-5.55629475 0.68292945 -3.10881477 0 0 0 Z " fill="#711116" transform="translate(61,130)"/>
<path d="M0 0 C0.99 0.33 1.98 0.66 3 1 C8.5951981 33.34297438 0.11938549 69.30533501 -18.6875 96.125 C-22.45879138 101.31211164 -26.61928965 106.1378093 -30.9375 110.875 C-31.49332764 111.48875488 -32.04915527 112.10250977 -32.62182617 112.73486328 C-34.01722242 114.21943658 -35.50273425 115.61823161 -37 117 C-37.99 117 -38.98 117 -40 117 C-40 116.34 -40 115.68 -40 115 C-39.01 115 -38.02 115 -37 115 C-37 113.68 -37 112.36 -37 111 C-35.515 110.505 -35.515 110.505 -34 110 C-34 109.34 -34 108.68 -34 108 C-35.32 107.67 -36.64 107.34 -38 107 C-38 103 -38 103 -35.5 100.3125 C-34.675 99.549375 -33.85 98.78625 -33 98 C-33 97.67 -33 97.34 -33 97 C-33 92.95945714 -30.95136305 91.16377545 -28.5 88.1875 C-8.36350068 62.71193948 -1.28974659 31.84339862 0 0 Z " fill="#901B23" transform="translate(196,132)"/>
<path d="M0 0 C0.99 0.33 1.98 0.66 3 1 C2.54109375 1.69222656 2.0821875 2.38445312 1.609375 3.09765625 C-5.20337837 13.96084912 -8.79906788 25.01514689 -8 38 C-4.37 35.36 -0.74 32.72 3 30 C3 30.99 3 31.98 3 33 C1.515 33.495 1.515 33.495 0 34 C0.66 35.65 1.32 37.3 2 39 C4.97 38.505 4.97 38.505 8 38 C5.20348138 45.00666203 -3.41308913 49.11114628 -9.9765625 52.21875 C-13.52534311 53.58893556 -17.21482596 54.57758452 -21 55 C-22.8355378 53.1644622 -22.13220793 50.61389754 -22.13989258 48.1730957 C-22.11494978 44.11477908 -22.07321351 40.05775104 -22 36 C-21.98324219 34.82566406 -21.96648438 33.65132812 -21.94921875 32.44140625 C-21.56737052 23.70253675 -19.04220077 16.11627734 -16 8 C-15.01 8.33 -14.02 8.66 -13 9 C-12.67 8.34 -12.34 7.68 -12 7 C-10.0625 6.25 -10.0625 6.25 -8 6 C-7.34 6.66 -6.68 7.32 -6 8 C-4.02 5.36 -2.04 2.72 0 0 Z " fill="#7F1318" transform="translate(64,73)"/>
<path d="M0 0 C0 0.99 0 1.98 0 3 C0.99 3 1.98 3 3 3 C3 3.66 3 4.32 3 5 C3.556875 5.2475 4.11375 5.495 4.6875 5.75 C7.39971127 7.21606015 9.63587365 9.02989471 12 11 C11.505 13.475 11.505 13.475 11 16 C10.1028125 15.7525 10.1028125 15.7525 9.1875 15.5 C6.88655664 14.8885876 6.88655664 14.8885876 4 15 C1.16055466 14.64506933 -0.55269408 14.35475987 -2.8125 12.5625 C-4 11 -4 11 -4 9 C-4.928125 8.896875 -5.85625 8.79375 -6.8125 8.6875 C-10 8 -10 8 -11.4375 6.5 C-13.906266 4.12998464 -16.70123249 4.31120448 -20 4 C-20 3.34 -20 2.68 -20 2 C-29.9 2 -39.8 2 -50 2 C-50.33 2.66 -50.66 3.32 -51 4 C-53.36328125 4.4140625 -53.36328125 4.4140625 -56.3125 4.625 C-57.76076172 4.73714844 -57.76076172 4.73714844 -59.23828125 4.8515625 C-61.48948116 4.97256052 -63.74555072 5 -66 5 C-66.33 3.68 -66.66 2.36 -67 1 C-66.01 0.319375 -66.01 0.319375 -65 -0.375 C-64.34 -0.91125 -63.68 -1.4475 -63 -2 C-63 -2.66 -63 -3.32 -63 -4 C-42.95299899 -12.64772592 -18.71023341 -10.94973887 0 0 Z " fill="#D1232D" transform="translate(152,45)"/>
<path d="M0 0 C0.66 0 1.32 0 2 0 C2.03963867 0.69859131 2.07927734 1.39718262 2.12011719 2.11694336 C2.95218864 16.11160374 4.02408596 29.52606908 8 43 C8.18433594 43.639375 8.36867188 44.27875 8.55859375 44.9375 C11.03518078 53.40913563 14.32512509 61.11536852 18.44921875 68.87890625 C20 72 20 72 21.0234375 75.08203125 C22.02214805 78.06617837 23.29029197 80.45090656 24.9375 83.125 C25.44152344 83.95257813 25.94554688 84.78015625 26.46484375 85.6328125 C27.96191775 88.01429941 27.96191775 88.01429941 29.69140625 90.1796875 C31 92 31 92 31 94 C30.01 94 29.02 94 28 94 C27.67 94.99 27.34 95.98 27 97 C26.01 97 25.02 97 24 97 C23.71125 96.030625 23.4225 95.06125 23.125 94.0625 C22.35785318 90.89335797 22.35785318 90.89335797 20 90 C20 89.34 20 88.68 20 88 C18.515 87.505 18.515 87.505 17 87 C16.67 85.35 16.34 83.7 16 82 C15.34 82 14.68 82 14 82 C14 81.01 14 80.02 14 79 C13.01 79 12.02 79 11 79 C6.24395154 68.20537316 2.21422063 57.62402423 0 46 C-0.17805176 45.06687988 -0.35610352 44.13375977 -0.53955078 43.17236328 C-2.03284366 34.54253495 -2.30169458 26.11999981 -2.25 17.375 C-2.25714609 16.01431925 -2.26495572 14.65364183 -2.2734375 13.29296875 C-2.27085938 12.00777344 -2.26828125 10.72257813 -2.265625 9.3984375 C-2.26336914 8.24005371 -2.26111328 7.08166992 -2.25878906 5.88818359 C-2 3 -2 3 0 0 Z " fill="#9A222A" transform="translate(35,133)"/>
<path d="M0 0 C3.45812357 3.21224781 6.086708 6.82052486 8.75 10.6875 C14.94336174 19.47888591 21.24308769 26.8014547 29.99609375 33.17578125 C32.22821316 35.2077496 32.39485628 36.15053686 33 39 C33.99 39.66 34.98 40.32 36 41 C36 41.66 36 42.32 36 43 C37.07314453 43.13728516 37.07314453 43.13728516 38.16796875 43.27734375 C41.50296243 44.12834214 43.54539173 45.53328727 46.3125 47.5625 C47.19550781 48.20316406 48.07851562 48.84382813 48.98828125 49.50390625 C49.65214844 49.99761719 50.31601563 50.49132812 51 51 C49.63016497 54.16115776 49.0109362 54.9927092 46 57 C42.8125 56.625 42.8125 56.625 40 56 C40 55.34 40 54.68 40 54 C39.175 53.7525 38.35 53.505 37.5 53.25 C29.96192644 50.55783087 24.38299664 47.05621548 18.625 41.5 C17.9757959 40.8805249 17.3265918 40.2610498 16.65771484 39.62280273 C6.6421245 29.92369015 -1.47238584 19.32993785 -8 7 C-8 6.34 -8 5.68 -8 5 C-7.34 5 -6.68 5 -6 5 C-6 5.99 -6 6.98 -6 8 C-5.34 8 -4.68 8 -4 8 C-3.71125 8.804375 -3.4225 9.60875 -3.125 10.4375 C-2.26737432 13.1326468 -2.26737432 13.1326468 0 14 C0 14.66 0 15.32 0 16 C0.99 16.33 1.98 16.66 3 17 C3.33 18.98 3.66 20.96 4 23 C4.99 23 5.98 23 7 23 C7.33 21.35 7.66 19.7 8 18 C8.33 18.66 8.66 19.32 9 20 C9.66 20 10.32 20 11 20 C10.54109375 19.35933594 10.0821875 18.71867187 9.609375 18.05859375 C0 4.51260504 0 4.51260504 0 0 Z " fill="#731216" transform="translate(55,207)"/>
<path d="M0 0 C0.33 0 0.66 0 1 0 C1.16237214 12.63925339 1.28666218 25.27825764 1.3626852 37.91834259 C1.39917753 43.78805955 1.44865626 49.65706164 1.52807617 55.52636719 C1.60427647 61.19336445 1.64602037 66.85967525 1.6641407 72.52714539 C1.67704949 74.68652653 1.70225822 76.84587116 1.7401104 79.00495911 C1.79112405 82.03602513 1.79791559 85.06427513 1.79467773 88.09570312 C1.83242813 89.42711838 1.83242813 89.42711838 1.87094116 90.78543091 C1.79972745 96.96928555 0.03860481 99.98408173 -4.29260159 104.36740875 C-4.85604306 104.90616386 -5.41948454 105.44491898 -6 106 C-6.68964844 106.77988281 -7.37929687 107.55976563 -8.08984375 108.36328125 C-16.72097142 117.46884723 -30.03034704 127.92031121 -42 132 C-47.12115945 131.80384068 -50.92668331 129.64515823 -55.1875 127 C-55.8467749 126.59483154 -56.5060498 126.18966309 -57.18530273 125.7722168 C-62.06706621 122.71081211 -66.71523898 119.48980186 -70.99047852 115.60791016 C-73.17614452 113.71391452 -75.18834252 112.17977992 -77.56274414 110.58813477 C-83.01037171 106.57042972 -87.21181961 102.50270217 -88.73916626 95.71511841 C-89.68708016 86.91913086 -89.34920512 78.11824032 -88.96130371 69.29785156 C-88.81647561 65.65154298 -88.75381414 62.0038415 -88.68359375 58.35546875 C-88.53471929 51.23361168 -88.29674491 44.11735987 -88 37 C-87.67 37 -87.34 37 -87 37 C-86.71164911 43.18880757 -86.42696222 49.37776948 -86.14550781 55.56689453 C-86.04948265 57.6675255 -85.95249763 59.76811284 -85.85449219 61.86865234 C-85.71289953 64.90711511 -85.57426492 67.94569127 -85.4375 70.984375 C-85.39302734 71.96313599 -85.34855469 72.94189697 -85.30273438 73.95031738 C-85.04771295 79.87830046 -84.93415284 85.77151205 -85.16015625 91.70410156 C-84.91747528 95.18302204 -83.77241342 97.97011544 -81.6875 100.75 C-79.53611698 102.34361705 -77.60991222 102.53155422 -75 103 C-74.34 103.66 -73.68 104.32 -73 105 C-73.375 107.125 -73.375 107.125 -74 109 C-71.60931266 110.10636395 -71.60931266 110.10636395 -69 111 C-68.01 110.505 -68.01 110.505 -67 110 C-65.515 110.99 -65.515 110.99 -64 112 C-65.32 112 -66.64 112 -68 112 C-68 112.66 -68 113.32 -68 114 C-67.34 114 -66.68 114 -66 114 C-65.5875 114.639375 -65.175 115.27875 -64.75 115.9375 C-62.39569461 118.71221707 -60.51909114 118.55075432 -57 119 C-55 121 -55 121 -55 123 C-54.01 123.495 -54.01 123.495 -53 124 C-53 124.66 -53 125.32 -53 126 C-48.4832533 127.76263286 -44.84259321 128.59470443 -40 128 C-38.0017752 126.83908802 -36.26315209 125.56232209 -34.48046875 124.09375 C-33 123 -33 123 -31 123 C-31 122.34 -31 121.68 -31 121 C-30.1646875 120.5978125 -30.1646875 120.5978125 -29.3125 120.1875 C-24.37424914 117.93288201 -24.37424914 117.93288201 -21 114 C-20.34 114 -19.68 114 -19 114 C-18.505 112.515 -18.505 112.515 -18 111 C-17.01 110.67 -16.02 110.34 -15 110 C-13.24986662 108.31097201 -13.24986662 108.31097201 -11.5625 106.25 C-10.95148438 105.53328125 -10.34046875 104.8165625 -9.7109375 104.078125 C-8.33827478 102.41087256 -7.00596147 100.7104365 -5.6875 99 C-5.130625 98.34 -4.57375 97.68 -4 97 C-3.34 97 -2.68 97 -2 97 C-2.01160156 96.30777344 -2.02320313 95.61554688 -2.03515625 94.90234375 C-2.08703604 89.2770919 -1.94728635 83.72482591 -1.51586914 78.11499023 C-0.94164215 69.81571419 -0.77871899 61.53922524 -0.68359375 53.22265625 C-0.6629502 51.67467286 -0.64195226 50.12669416 -0.62062073 48.57872009 C-0.5661621 44.55941639 -0.51642615 40.54006853 -0.46777344 36.52069092 C-0.41699151 32.39721885 -0.36160543 28.27380868 -0.30664062 24.15039062 C-0.19999544 16.10031319 -0.09835402 8.050183 0 0 Z M-77 104 C-76.67 104.66 -76.34 105.32 -76 106 C-75.67 105.34 -75.34 104.68 -75 104 C-75.66 104 -76.32 104 -77 104 Z " fill="#77181D" transform="translate(160,122)"/>
<path d="M0 0 C0 3.95329883 -1.59399412 5.30314721 -4.00390625 8.28125 C-4.33261719 8.8484375 -4.66132813 9.415625 -5 10 C-4.67 10.99 -4.34 11.98 -4 13 C-3.34 13 -2.68 13 -2 13 C-1.67 13.99 -1.34 14.98 -1 16 C-2.32 16 -3.64 16 -5 16 C-5 17.32 -5 18.64 -5 20 C-5.99 20 -6.98 20 -8 20 C-7.67 20.99 -7.34 21.98 -7 23 C-8.39113995 24.27596932 -9.78814413 25.54554648 -11.1875 26.8125 C-11.96480469 27.52019531 -12.74210937 28.22789062 -13.54296875 28.95703125 C-17.49896771 32.24635948 -19.75858296 34 -25 34 C-25.103125 33.38125 -25.20625 32.7625 -25.3125 32.125 C-25.87525373 29.63473516 -25.87525373 29.63473516 -29 28 C-29.99 28 -30.98 28 -32 28 C-30.68 27.34 -29.36 26.68 -28 26 C-28.33 25.01 -28.66 24.02 -29 23 C-28.34515625 22.55011719 -27.6903125 22.10023438 -27.015625 21.63671875 C-20.95804043 17.36731946 -15.44444635 12.85287062 -10.06152344 7.77026367 C-3.89054553 1.94527276 -3.89054553 1.94527276 0 0 Z " fill="#6D1217" transform="translate(164,227)"/>
<path d="M0 0 C0.99 0.33 1.98 0.66 3 1 C6.71080515 22.4502639 3.4954041 44.4408006 -3 65 C-3.33 65 -3.66 65 -4 65 C-4 63.02 -4 61.04 -4 59 C-5.98 58.34 -7.96 57.68 -10 57 C-9.81824219 56.40574219 -9.63648438 55.81148437 -9.44921875 55.19921875 C-8.91194608 53.42759655 -8.38131707 51.65395292 -7.85546875 49.87890625 C-7.33033807 48.11168566 -6.79385363 46.34773174 -6.23828125 44.58984375 C-1.9278156 30.19881821 -0.60553897 14.95054835 0 0 Z " fill="#922530" transform="translate(196,132)"/>
<path d="M0 0 C1.46821355 -0.01303158 2.93641119 -0.02798298 4.40458679 -0.04475403 C7.47566799 -0.07001395 10.54490108 -0.06501809 13.6159668 -0.03979492 C17.52851332 -0.01106352 21.43434215 -0.06827655 25.3459444 -0.14997387 C28.37748301 -0.20173403 31.40744116 -0.20167216 34.43932152 -0.1871891 C35.87973628 -0.18739399 37.32026174 -0.20445915 38.76024818 -0.23958397 C50.53671082 -0.48784699 50.53671082 -0.48784699 55.18856812 3.70785522 C57.72879265 6.33379034 59.91995508 9.17164605 62.01171875 12.16796875 C61.68171875 12.82796875 61.35171875 13.48796875 61.01171875 14.16796875 C58.62607798 13.59212443 56.34489091 12.9456928 54.01171875 12.16796875 C54.01171875 11.50796875 54.01171875 10.84796875 54.01171875 10.16796875 C53.35171875 10.16796875 52.69171875 10.16796875 52.01171875 10.16796875 C51.51671875 7.69296875 51.51671875 7.69296875 51.01171875 5.16796875 C43.6663168 5.01386426 36.32082028 4.86568576 28.9751482 4.72500515 C25.56401349 4.65949198 22.15294388 4.59196263 18.74194336 4.51977539 C14.81765548 4.43681481 10.89322408 4.36271383 6.96875 4.2890625 C5.13725151 4.2485099 5.13725151 4.2485099 3.26875305 4.20713806 C2.12794785 4.18704178 0.98714264 4.1669455 -0.18823242 4.14624023 C-1.18972824 4.12625473 -2.19122406 4.10626923 -3.22306824 4.0856781 C-5.92718967 4.16615071 -8.35833563 4.55444682 -10.98828125 5.16796875 C-10.65828125 5.82796875 -10.32828125 6.48796875 -9.98828125 7.16796875 C-15.73828125 11.16796875 -15.73828125 11.16796875 -17.98828125 11.16796875 C-18.97828125 11.82796875 -19.96828125 12.48796875 -20.98828125 13.16796875 C-21.93514658 10.65913116 -22.16280444 9.57211333 -21.08161926 7.06840515 C-15.36574928 -0.38068071 -8.82996209 -0.0579814 0 0 Z " fill="#D4232D" transform="translate(97.98828125,107.83203125)"/>
<path d="M0 0 C0.66 0.33 1.32 0.66 2 1 C-3.47528046 10.60681077 -9.86114742 18.87128328 -17.25 27.0625 C-17.76965332 27.64749268 -18.28930664 28.23248535 -18.82470703 28.83520508 C-20.15419537 30.28322039 -21.57189538 31.64914665 -23 33 C-23.99 33 -24.98 33 -26 33 C-26 32.34 -26 31.68 -26 31 C-25.01 31 -24.02 31 -23 31 C-23 29.68 -23 28.36 -23 27 C-22.01 26.67 -21.02 26.34 -20 26 C-20 25.34 -20 24.68 -20 24 C-21.32 23.67 -22.64 23.34 -24 23 C-24 19 -24 19 -21.5 16.3125 C-20.675 15.549375 -19.85 14.78625 -19 14 C-19 13.67 -19 13.34 -19 13 C-19 9.41087588 -18.33563446 8.89142971 -16 6.3125 C-15.443125 5.68988281 -14.88625 5.06726563 -14.3125 4.42578125 C-13.6628125 3.72001953 -13.6628125 3.72001953 -13 3 C-12.34 3.33 -11.68 3.66 -11 4 C-11 4.99 -11 5.98 -11 7 C-10.67 6.01 -10.34 5.02 -10 4 C-7 3 -7 3 -4 3 C-1.82967524 1.56009377 -1.82967524 1.56009377 0 0 Z " fill="#801920" transform="translate(182,216)"/>
<path d="M0 0 C0 1.66666667 0 3.33333333 0 5 C2.46326712 6.6446674 2.46326712 6.6446674 5 8 C5.99 7.34 6.98 6.68 8 6 C8.33 6.99 8.66 7.98 9 9 C7.76421715 10.51173435 6.51082994 12.0090916 5.25 13.5 C4.55390625 14.3353125 3.8578125 15.170625 3.140625 16.03125 C1 18 1 18 -3 18 C-3.226875 18.556875 -3.45375 19.11375 -3.6875 19.6875 C-5.35896766 22.63246684 -7.55276352 24.68156544 -10 27 C-10.66 26.34 -11.32 25.68 -12 25 C-12.99 25 -13.98 25 -15 25 C-15.33 25.99 -15.66 26.98 -16 28 C-16.66 27.34 -17.32 26.68 -18 26 C-16.7844095 15.7977226 -6.84983306 6.84983306 0 0 Z " fill="#A21B23" transform="translate(67,55)"/>
<path d="M0 0 C2.81798086 2.56180078 4.59559394 5.04115813 5.375 8.81640625 C6.14943838 11.52210034 7.40561068 13.60219057 8.875 16 C9.38804688 16.845625 9.90109375 17.69125 10.4296875 18.5625 C11.95377565 21.00578345 11.95377565 21.00578345 13.6953125 23.1875 C15 25 15 25 15 27 C14.01 27 13.02 27 12 27 C11.67 27.99 11.34 28.98 11 30 C10.01 30 9.02 30 8 30 C7.71125 29.030625 7.4225 28.06125 7.125 27.0625 C6.35785318 23.89335797 6.35785318 23.89335797 4 23 C4 22.34 4 21.68 4 21 C3.01 20.67 2.02 20.34 1 20 C0.67 18.35 0.34 16.7 0 15 C-0.66 15 -1.32 15 -2 15 C-2 14.01 -2 13.02 -2 12 C-2.99 12 -3.98 12 -5 12 C-5.67119549 10.5437455 -6.33681807 9.08492133 -7 7.625 C-7.37125 6.81289062 -7.7425 6.00078125 -8.125 5.1640625 C-9 3 -9 3 -9 1 C-8.34 1 -7.68 1 -7 1 C-7 1.66 -7 2.32 -7 3 C-4.69 3.33 -2.38 3.66 0 4 C0 2.68 0 1.36 0 0 Z " fill="#8F171D" transform="translate(51,200)"/>
<path d="M0 0 C0.33 0 0.66 0 1 0 C1.16237214 12.63925339 1.28666218 25.27825764 1.3626852 37.91834259 C1.39917753 43.78805955 1.44865626 49.65706164 1.52807617 55.52636719 C1.60427647 61.19336445 1.64602037 66.85967525 1.6641407 72.52714539 C1.67704949 74.68652653 1.70225822 76.84587116 1.7401104 79.00495911 C1.79112405 82.03602513 1.79791559 85.06427513 1.79467773 88.09570312 C1.81984467 88.98331329 1.8450116 89.87092346 1.87094116 90.78543091 C1.79999369 96.94616622 0.06261629 99.96042743 -4.25140285 104.32964325 C-4.82843991 104.88086098 -5.40547697 105.4320787 -6 106 C-7.24330078 107.36125 -7.24330078 107.36125 -8.51171875 108.75 C-9.22972656 109.4925 -9.94773438 110.235 -10.6875 111 C-11.41324219 111.763125 -12.13898438 112.52625 -12.88671875 113.3125 C-15 115 -15 115 -19 115 C-18.6875 113.0625 -18.6875 113.0625 -18 111 C-16.515 110.505 -16.515 110.505 -15 110 C-13.24986662 108.31097201 -13.24986662 108.31097201 -11.5625 106.25 C-10.64597656 105.17492187 -10.64597656 105.17492187 -9.7109375 104.078125 C-8.33827478 102.41087256 -7.00596147 100.7104365 -5.6875 99 C-4.8521875 98.01 -4.8521875 98.01 -4 97 C-3.34 97 -2.68 97 -2 97 C-2.01160156 96.30777344 -2.02320313 95.61554688 -2.03515625 94.90234375 C-2.08703604 89.2770919 -1.94728635 83.72482591 -1.51586914 78.11499023 C-0.94164215 69.81571419 -0.77871899 61.53922524 -0.68359375 53.22265625 C-0.6629502 51.67467286 -0.64195226 50.12669416 -0.62062073 48.57872009 C-0.5661621 44.55941639 -0.51642615 40.54006853 -0.46777344 36.52069092 C-0.41699151 32.39721885 -0.36160543 28.27380868 -0.30664062 24.15039062 C-0.19999544 16.10031319 -0.09835402 8.050183 0 0 Z " fill="#6E1B20" transform="translate(160,122)"/>
<path d="M0 0 C0.33 0.66 0.66 1.32 1 2 C1.66 2 2.32 2 3 2 C4.11554083 12.80835118 0.77593879 22.65962801 -2 33 C6.91 33 15.82 33 25 33 C24.67 32.01 24.34 31.02 24 30 C23.96045766 27.66700175 23.95598268 25.33291811 24 23 C26.04795423 24.9626228 26.94976638 26.4277307 27.19921875 29.26953125 C27.18858877 31.51954383 27.12958525 33.75385562 27 36 C25.515 36.495 25.515 36.495 24 37 C23.67 37.66 23.34 38.32 23 39 C23 38.01 23 37.02 23 36 C20.37461716 36.14053872 17.74982573 36.28718947 15.125 36.4375 C14.00544922 36.49647461 14.00544922 36.49647461 12.86328125 36.55664062 C8.80013136 36.71573624 8.80013136 36.71573624 5 38 C1.82258324 37.4190544 -1.1022586 36.42422073 -4 35 C-6.15670189 31.72181313 -6.22085107 28.86489366 -6 25 C-5.01 24.67 -4.02 24.34 -3 24 C-3.061875 22.824375 -3.061875 22.824375 -3.125 21.625 C-3 19 -3 19 -1 17 C-0.57544209 14.93221967 -0.57544209 14.93221967 -0.4375 12.625 C-0.24559971 10.2830332 -0.03330698 8.12900592 0.5546875 5.8515625 C1.09597121 3.60096183 0.69993452 2.17757407 0 0 Z " fill="#7B1016" transform="translate(105,169)"/>
<path d="M0 0 C1.31223496 3.93670488 0.24296256 6.12488144 -1 10 C-0.01 9.67 0.98 9.34 2 9 C2.33 8.01 2.66 7.02 3 6 C3.66 6 4.32 6 5 6 C6.38938077 4.03852126 7.7260411 2.03833424 9 0 C9.66 0.66 10.32 1.32 11 2 C9.38370008 6.29499423 7.75550467 10.58538028 6.125 14.875 C5.66480469 16.09832031 5.20460937 17.32164062 4.73046875 18.58203125 C4.28574219 19.74863281 3.84101563 20.91523438 3.3828125 22.1171875 C2.97434082 23.19597168 2.56586914 24.27475586 2.14501953 25.38623047 C1 28 1 28 -1 30 C-1.99 30 -2.98 30 -4 30 C-4.11701204 26.31277073 -4.18752045 22.62602458 -4.25 18.9375 C-4.28351563 17.89916016 -4.31703125 16.86082031 -4.3515625 15.79101562 C-4.43453319 9.25707407 -3.84691683 5.338733 0 0 Z " fill="#B61E28" transform="translate(175,170)"/>
<path d="M0 0 C3.56348283 3.30776994 6.24014855 6.96916815 9 10.9375 C11.88722097 15.06272633 14.8050501 19.10245695 18 23 C17.01 23 16.02 23 15 23 C14.67 24.32 14.34 25.64 14 27 C13.01 26.34 12.02 25.68 11 25 C10.34 25 9.68 25 9 25 C9.33 25.99 9.66 26.98 10 28 C10.66 28.33 11.32 28.66 12 29 C11.67 30.32 11.34 31.64 11 33 C3.0562176 25.53765896 -3.02984658 16.6834904 -8 7 C-8 6.34 -8 5.68 -8 5 C-7.34 5 -6.68 5 -6 5 C-6 5.99 -6 6.98 -6 8 C-5.34 8 -4.68 8 -4 8 C-3.71125 8.804375 -3.4225 9.60875 -3.125 10.4375 C-2.26737432 13.1326468 -2.26737432 13.1326468 0 14 C0 14.66 0 15.32 0 16 C0.99 16.33 1.98 16.66 3 17 C3.33 18.98 3.66 20.96 4 23 C4.99 23 5.98 23 7 23 C7.33 21.35 7.66 19.7 8 18 C8.33 18.66 8.66 19.32 9 20 C9.66 20 10.32 20 11 20 C10.54109375 19.35933594 10.0821875 18.71867187 9.609375 18.05859375 C0 4.51260504 0 4.51260504 0 0 Z " fill="#861E21" transform="translate(55,207)"/>
<path d="M0 0 C11.08836883 6.11082451 24.9789023 16.36931274 29 29 C29.10546875 31.75 29.10546875 31.75 29 34 C27.515 34.495 27.515 34.495 26 35 C25.67 34.34 25.34 33.68 25 33 C24.67 33.66 24.34 34.32 24 35 C22.68 34.67 21.36 34.34 20 34 C20.33 32.68 20.66 31.36 21 30 C19.02 30.66 17.04 31.32 15 32 C12.525 28.04 12.525 28.04 10 24 C11.32 24 12.64 24 14 24 C14 25.32 14 26.64 14 28 C17.48809191 27.22969878 17.48809191 27.22969878 21 26 C21.33 25.01 21.66 24.02 22 23 C18.40174902 17.15893676 13.94595484 12.43544057 8 9 C5.125 6.875 5.125 6.875 3 5 C3 4.34 3 3.68 3 3 C2.01 3 1.02 3 0 3 C0 2.01 0 1.02 0 0 Z " fill="#A2212A" transform="translate(152,45)"/>
<path d="M0 0 C5.00613773 3.72549784 7.95577773 7.57158595 11 13 C9.875 15 9.875 15 8 17 C4.8125 17.25 4.8125 17.25 2 17 C2 15.68 2 14.36 2 13 C1.13375 12.938125 1.13375 12.938125 0.25 12.875 C-3.20927155 11.52972773 -4.28134459 9.1826952 -6 6 C-5.67 5.01 -5.34 4.02 -5 3 C-3.33333333 3 -1.66666667 3 0 3 C0 2.01 0 1.02 0 0 Z " fill="#B51D25" transform="translate(164,56)"/>
<path d="M0 0 C2.63991268 2.63991268 2.30240797 3.97946296 2.4140625 7.6640625 C2.45273438 8.78554687 2.49140625 9.90703125 2.53125 11.0625 C2.5621875 12.238125 2.593125 13.41375 2.625 14.625 C2.66367188 15.80835937 2.70234375 16.99171875 2.7421875 18.2109375 C2.83668845 21.14046691 2.92224558 24.06998597 3 27 C-4.105466 28.7333351 -9.77053258 25.23162217 -16 22 C-19.18730026 19.85519473 -22.13723755 17.55982463 -25 15 C-24.67 14.01 -24.34 13.02 -24 12 C-23.236875 12.825 -22.47375 13.65 -21.6875 14.5 C-19.24565858 17.34055197 -19.24565858 17.34055197 -16 17 C-15.67 17.66 -15.34 18.32 -15 19 C-13.35636866 19.72159424 -11.68949614 20.39351421 -10 21 C-10 21.66 -10 22.32 -10 23 C-6.9254644 22.2236068 -6.9254644 22.2236068 -5 20 C-2.875 20.375 -2.875 20.375 -1 21 C-1.33 21.66 -1.66 22.32 -2 23 C-1.34 22.67 -0.68 22.34 0 22 C0 14.74 0 7.48 0 0 Z " fill="#5F0C12" transform="translate(188,100)"/>
<path d="M0 0 C1.32 0.66 2.64 1.32 4 2 C-16.29992802 18.13021308 -16.29992802 18.13021308 -23.9609375 17.91796875 C-27.62366848 16.81161685 -30.50034322 15.20543203 -33.75 13.1875 C-34.32621094 12.84396484 -34.90242188 12.50042969 -35.49609375 12.14648438 C-38.6917838 10.16128298 -40.73662009 8.60387217 -42 5 C-40.25 4.3125 -40.25 4.3125 -38 4 C-35.75 5.3125 -35.75 5.3125 -34 7 C-34 7.66 -34 8.32 -34 9 C-33.34 9.33 -32.68 9.66 -32 10 C-32 10.66 -32 11.32 -32 12 C-27.4832533 13.76263286 -23.84259321 14.59470443 -19 14 C-17.0017752 12.83908802 -15.26315209 11.56232209 -13.48046875 10.09375 C-12 9 -12 9 -10 9 C-10 8.34 -10 7.68 -10 7 C-9.443125 6.731875 -8.88625 6.46375 -8.3125 6.1875 C-3.37424914 3.93288201 -3.37424914 3.93288201 0 0 Z " fill="#581318" transform="translate(139,236)"/>
<path d="M0 0 C0 3.95329883 -1.59399412 5.30314721 -4.00390625 8.28125 C-4.33261719 8.8484375 -4.66132813 9.415625 -5 10 C-4.67 10.99 -4.34 11.98 -4 13 C-3.34 13 -2.68 13 -2 13 C-1.67 13.99 -1.34 14.98 -1 16 C-2.32 16 -3.64 16 -5 16 C-5 17.32 -5 18.64 -5 20 C-5.99 20 -6.98 20 -8 20 C-8 20.66 -8 21.32 -8 22 C-8.66 22 -9.32 22 -10 22 C-10.33 22.99 -10.66 23.98 -11 25 C-12.65 25 -14.3 25 -16 25 C-16 23 -16 23 -14.5 21.375 C-13.7575 20.694375 -13.7575 20.694375 -13 20 C-13.33 19.34 -13.66 18.68 -14 18 C-14.66 18 -15.32 18 -16 18 C-16 17.34 -16 16.68 -16 16 C-14.34997172 14.64613064 -12.6825613 13.31321858 -11 12 C-10.67 11.34 -10.34 10.68 -10 10 C-9.34 10 -8.68 10 -8 10 C-7.67 9.01 -7.34 8.02 -7 7 C-5.37550757 5.29220027 -3.70779973 3.62449243 -2 2 C-1.34 1.34 -0.68 0.68 0 0 Z " fill="#781116" transform="translate(164,227)"/>
<path d="M0 0 C0 0.66 0 1.32 0 2 C0.99 1.67 1.98 1.34 3 1 C6.125 1.75 6.125 1.75 9 3 C9.495 4.485 9.495 4.485 10 6 C11.98 6.33 13.96 6.66 16 7 C16 7.66 16 8.32 16 9 C16.99 9.33 17.98 9.66 19 10 C19 10.66 19 11.32 19 12 C20.11375 11.87625 20.11375 11.87625 21.25 11.75 C24 12 24 12 26.3125 13.8125 C28 16 28 16 28 19 C28.99 19.33 29.98 19.66 31 20 C30.34 20.66 29.68 21.32 29 22 C28.26910156 21.27296875 28.26910156 21.27296875 27.5234375 20.53125 C11.59419757 5.47087771 -4.80980248 2.60722898 -26 2 C-26 1.67 -26 1.34 -26 1 C-22.9792807 0.83100871 -19.95845177 0.66473871 -16.9375 0.5 C-16.08994141 0.45230469 -15.24238281 0.40460937 -14.36914062 0.35546875 C-9.57055312 0.09608564 -4.80550212 -0.05216285 0 0 Z " fill="#B22E36" transform="translate(132,47)"/>
<path d="M0 0 C0.33 0.99 0.66 1.98 1 3 C0.01 3.66 -0.98 4.32 -2 5 C-2.40624488 7.16275773 -2.40624488 7.16275773 -2.26464844 9.69555664 C-2.23911896 11.16594139 -2.23911896 11.16594139 -2.21307373 12.66603088 C-2.17885315 13.73659225 -2.14463257 14.80715363 -2.109375 15.91015625 C-2.08530579 17.0244249 -2.06123657 18.13869354 -2.03643799 19.28672791 C-1.95512479 22.87914922 -1.85260421 26.47063024 -1.75 30.0625 C-1.69527409 32.39515123 -1.64187452 34.72783397 -1.58984375 37.06054688 C-1.3687084 46.45099547 -1.11950756 55.8361248 -0.65820312 65.21826172 C-0.60351868 66.36870468 -0.54883423 67.51914764 -0.49249268 68.70445251 C-0.38524888 70.89290498 -0.26877346 73.08093026 -0.14178467 75.26832581 C-0.09402893 76.24252975 -0.04627319 77.2167337 0.00292969 78.22045898 C0.05052429 79.07429672 0.0981189 79.92813446 0.14715576 80.80784607 C0 83 0 83 -2 86 C-3.09853413 64.79624613 -4.19402835 43.57746293 -4.35449219 22.34213257 C-4.36811819 20.74442315 -4.38858002 19.14675681 -4.41601562 17.54922485 C-4.45144041 15.33316566 -4.46032664 13.1186506 -4.4609375 10.90234375 C-4.46915527 9.65960693 -4.47737305 8.41687012 -4.48583984 7.13647461 C-3.91467237 3.44914369 -2.87299035 2.28622281 0 0 Z " fill="#9A141A" transform="translate(76,118)"/>
<path d="M0 0 C2.0625 0.6875 2.0625 0.6875 4 2 C4.8203125 3.8515625 4.8203125 3.8515625 5 6 C3.70703125 7.88671875 3.70703125 7.88671875 1.8125 9.6875 C1.20019531 10.28949219 0.58789062 10.89148438 -0.04296875 11.51171875 C-3.03453548 13.78674255 -5.29019476 14 -9 14 C-9.21278058 9.53160785 -8.59138085 6.17737474 -7 2 C-6.21625 1.855625 -5.4325 1.71125 -4.625 1.5625 C-2.03578982 1.12201075 -2.03578982 1.12201075 0 0 Z " fill="#BE1F27" transform="translate(106,144)"/>
<path d="M0 0 C0.99 0.33 1.98 0.66 3 1 C4.02507628 6.93724183 4.1833265 12.73181615 4.1875 18.75 C4.19974609 19.69488281 4.21199219 20.63976562 4.22460938 21.61328125 C4.22654297 22.51949219 4.22847656 23.42570312 4.23046875 24.359375 C4.23457764 25.17889648 4.23868652 25.99841797 4.24291992 26.84277344 C4 29 4 29 2 32 C1.67 29.69 1.34 27.38 1 25 C0.67 26.32 0.34 27.64 0 29 C-0.66 29 -1.32 29 -2 29 C-1.34 19.43 -0.68 9.86 0 0 Z " fill="#841E26" transform="translate(196,132)"/>
<path d="M0 0 C1.875 0.3125 1.875 0.3125 4 1 C4.66 1.99 5.32 2.98 6 4 C7.32 3.01 8.64 2.02 10 1 C12.79799985 2.09921423 14.03550018 3.04466152 15.9375 5.4375 C18.07976689 8.09910431 20.00341703 9.4184701 23 11 C23 7.37 23 3.74 23 0 C25 2 25 2 25.1953125 4.6015625 C25.17210937 5.59929687 25.14890625 6.59703125 25.125 7.625 C25.10695312 8.62789062 25.08890625 9.63078125 25.0703125 10.6640625 C25.04710937 11.43492188 25.02390625 12.20578125 25 13 C24.01 13.495 24.01 13.495 23 14 C19.30970546 12.10498388 16.18595135 9.63978826 13 7 C11.02 8.32 9.04 9.64 7 11 C7 10.34 7 9.68 7 9 C6.401875 8.9175 5.80375 8.835 5.1875 8.75 C2.32587525 7.76887152 1.48679185 6.60188573 0 4 C0 2.68 0 1.36 0 0 Z " fill="#77121B" transform="translate(154,100)"/>
<path d="M0 0 C1.65 0.99 3.3 1.98 5 3 C5.99 2.34 6.98 1.68 8 1 C8.33 1.99 8.66 2.98 9 4 C8.195625 4.12375 7.39125 4.2475 6.5625 4.375 C5.2940625 4.684375 5.2940625 4.684375 4 5 C3.67 5.66 3.34 6.32 3 7 C0.36807894 10.08310752 -1.23413946 11.78976377 -5.1875 12.875 C-8 13 -8 13 -10 12 C-8.94124926 8.59687262 -7.99097846 5.98646769 -6 3 C-4.35636866 2.27840576 -2.68949614 1.60648579 -1 1 C-0.67 0.67 -0.34 0.34 0 0 Z " fill="#B61D26" transform="translate(67,60)"/>
<path d="M0 0 C0.33 0 0.66 0 1 0 C1.12375 0.804375 1.2475 1.60875 1.375 2.4375 C1.684375 3.7059375 1.684375 3.7059375 2 5 C2.66 5.33 3.32 5.66 4 6 C3.71889511 8.79310605 3.42563948 11.58398875 3.125 14.375 C3.00705078 15.56609375 3.00705078 15.56609375 2.88671875 16.78125 C2.2265625 22.7734375 2.2265625 22.7734375 0 25 C0 24.34 0 23.68 0 23 C-1.32 23.33 -2.64 23.66 -4 24 C-4 24.66 -4 25.32 -4 26 C-4.66 26 -5.32 26 -6 26 C-4.10377974 17.30899048 -2.04731567 8.65636869 0 0 Z " fill="#B11F28" transform="translate(193,162)"/>
<path d="M0 0 C0.33 0 0.66 0 1 0 C1 8.58 1 17.16 1 26 C-0.32 26 -1.64 26 -3 26 C-5.81849506 20.45108785 -7.5326514 16.258654 -7 10 C-2.125 10.875 -2.125 10.875 -1 12 C-0.67 8.04 -0.34 4.08 0 0 Z " fill="#B3454B" transform="translate(61,174)"/>
<path d="M0 0 C0.515625 0.309375 1.03125 0.61875 1.5625 0.9375 C4.10851407 2.18501795 4.10851407 2.18501795 7.5625 2.4375 C11 3 11 3 13 4.3125 C14 6 14 6 13.6875 8.1875 C13.460625 8.785625 13.23375 9.38375 13 10 C15.39068734 11.10636395 15.39068734 11.10636395 18 12 C18.66 11.67 19.32 11.34 20 11 C20.99 11.66 21.98 12.32 23 13 C21.68 13 20.36 13 19 13 C19 13.66 19 14.32 19 15 C19.66 15 20.32 15 21 15 C22.38938077 16.96147874 23.7260411 18.96166576 25 21 C24.67 21.66 24.34 22.32 24 23 C17.55917744 18.00481296 11.56857315 12.7624449 5.8125 7 C5.23604736 6.42419189 4.65959473 5.84838379 4.06567383 5.25512695 C0 1.13515364 0 1.13515364 0 0 Z M10 5 C10.33 5.66 10.66 6.32 11 7 C11.33 6.34 11.66 5.68 12 5 C11.34 5 10.68 5 10 5 Z " fill="#631116" transform="translate(73,221)"/>
<path d="M0 0 C0.33 0 0.66 0 1 0 C1.13277344 1.07121094 1.26554687 2.14242187 1.40234375 3.24609375 C1.5805056 4.64325769 1.75890319 6.04039159 1.9375 7.4375 C2.06801758 8.49807617 2.06801758 8.49807617 2.20117188 9.58007812 C2.38216191 13.08817968 2.38216191 13.08817968 4 16 C4.21083313 17.74522983 4.36875841 19.49698733 4.5 21.25 C4.77707056 24.91128954 5.21422463 28.41162583 6 32 C6.66 32 7.32 32 8 32 C8.33 34.64 8.66 37.28 9 40 C7.68 39.67 6.36 39.34 5 39 C4.72285156 37.85660156 4.44570313 36.71320313 4.16015625 35.53515625 C3.79445622 34.04422535 3.42856071 32.55334239 3.0625 31.0625 C2.88009766 30.30775391 2.69769531 29.55300781 2.50976562 28.77539062 C1.86160821 25.08720179 1.86160821 25.08720179 0 22 C-0.08700342 20.36527118 -0.10701063 18.72685945 -0.09765625 17.08984375 C-0.09443359 16.10048828 -0.09121094 15.11113281 -0.08789062 14.09179688 C-0.07951172 13.05087891 -0.07113281 12.00996094 -0.0625 10.9375 C-0.05798828 9.89271484 -0.05347656 8.84792969 -0.04882812 7.77148438 C-0.03699913 5.1809334 -0.02051689 2.59049441 0 0 Z " fill="#AB1C24" transform="translate(35,150)"/>
<path d="M0 0 C20.79 0 41.58 0 63 0 C63 0.33 63 0.66 63 1 C62.30953079 1.01030746 61.61906158 1.02061493 60.90766907 1.03123474 C53.72131094 1.13941441 46.53507528 1.25400321 39.34887695 1.37231445 C36.66693958 1.41614094 33.98498128 1.45769628 31.30297852 1.49731445 C27.44799693 1.55510707 23.59315033 1.61877607 19.73828125 1.68359375 C18.53915604 1.70030624 17.34003082 1.71701874 16.10456848 1.73423767 C14.98378403 1.75418289 13.86299957 1.77412811 12.70825195 1.79467773 C11.72452103 1.81022202 10.7407901 1.8257663 9.72724915 1.84178162 C7.06386268 1.99629508 4.59835369 2.40938182 2 3 C2.33 3.66 2.66 4.32 3 5 C1.02 6.32 -0.96 7.64 -3 9 C-2.41321669 5.47930015 -1.64350079 3.28700157 0 0 Z M-5 6 C-4.34 6.33 -3.68 6.66 -3 7 C-4.65 8.32 -6.3 9.64 -8 11 C-7.625 9.0625 -7.625 9.0625 -7 7 C-6.34 6.67 -5.68 6.34 -5 6 Z " fill="#BA222A" transform="translate(85,110)"/>
<path d="M0 0 C0.65042267 -0.0049649 1.30084534 -0.00992981 1.97097778 -0.01504517 C4.13113446 -0.02969784 6.29121773 -0.03647357 8.45141602 -0.04199219 C9.94735213 -0.0477407 11.4432882 -0.05349847 12.93922424 -0.05926514 C16.07911524 -0.06978371 19.21898057 -0.07562088 22.35888672 -0.07910156 C26.38881413 -0.08459082 30.41840442 -0.10862408 34.44822598 -0.13707352 C37.53909812 -0.1556659 40.62988849 -0.16090364 43.72081184 -0.16243744 C45.20682686 -0.16547178 46.69284018 -0.17352652 48.17880058 -0.18662262 C50.25488058 -0.20361456 52.33012934 -0.20182051 54.40625 -0.1953125 C55.58904037 -0.19895813 56.77183075 -0.20260376 57.99046326 -0.20635986 C58.90699173 -0.08508728 59.8235202 0.0361853 60.76782227 0.16113281 C61.75782227 1.64613281 61.75782227 1.64613281 62.76782227 3.16113281 C62.23548477 3.00011078 61.70314728 2.83908875 61.15467834 2.67318726 C58.25303541 2.05069511 55.54700326 2.00293209 52.578125 1.96826172 C51.32680283 1.95219879 50.07548065 1.93613586 48.78623962 1.91958618 C47.42463868 1.90810346 46.06303012 1.89749412 44.70141602 1.88769531 C44.01377733 1.88237164 43.32613865 1.87704796 42.61766243 1.87156296 C38.98323814 1.84490251 35.34884749 1.82549851 31.71435547 1.81103516 C28.7062363 1.79765704 25.6987893 1.76972566 22.69091797 1.72900391 C19.05523615 1.67979056 15.42016703 1.65493006 11.78416634 1.64780807 C10.39940757 1.6410844 9.01466309 1.62583299 7.63009453 1.60191727 C5.69634457 1.57040006 3.76212674 1.57322067 1.828125 1.57763672 C0.72766342 1.56954987 -0.37279816 1.56146301 -1.50660706 1.5531311 C-4.45312651 1.88494738 -4.45312651 1.88494738 -5.91172791 4.61557007 C-6.56535057 5.87562363 -6.56535057 5.87562363 -7.23217773 7.16113281 C-10.41967773 8.47363281 -10.41967773 8.47363281 -13.23217773 9.16113281 C-12.25398749 7.84790493 -11.27459663 6.53557129 -10.29467773 5.22363281 C-9.7494043 4.49273437 -9.20413086 3.76183594 -8.64233398 3.00878906 C-5.95987866 -0.50589617 -4.48332299 0.02589871 0 0 Z " fill="#9D353A" transform="translate(89.232177734375,108.8388671875)"/>
<path d="M0 0 C3.37462715 0.54723683 5.08235 1.0549 8 3 C6.78376953 3.61681641 6.78376953 3.61681641 5.54296875 4.24609375 C1.51647213 8.60658548 2.29568383 13.33491129 2.3125 19.0625 C2.2959289 21.24096287 2.27154747 23.41938436 2.23828125 25.59765625 C2.23868408 26.56195557 2.23908691 27.52625488 2.23950195 28.51977539 C2 31 2 31 0 34 C-0.16749457 29.47954554 -0.32806608 24.95891882 -0.48217773 20.43798828 C-0.53560391 18.89950922 -0.59093379 17.36109506 -0.64819336 15.82275391 C-0.73008748 13.61374914 -0.80517099 11.40460276 -0.87890625 9.1953125 C-0.90594131 8.50567413 -0.93297638 7.81603577 -0.96083069 7.10549927 C-1.11387171 2.22774341 -1.11387171 2.22774341 0 0 Z " fill="#540B0B" transform="translate(172,130)"/>
<path d="M0 0 C3.20708688 -0.23389694 6.41197595 -0.37487528 9.625 -0.5 C10.52863281 -0.56703125 11.43226563 -0.6340625 12.36328125 -0.703125 C19.01813726 -0.89742737 19.01813726 -0.89742737 21.98730469 1.81640625 C23.48886797 3.81849063 24.79972065 5.80598087 26 8 C24.48052501 11.36748512 23.47899158 12.60840337 20 14 C19.67 12.68 19.34 11.36 19 10 C18.01 10 17.02 10 16 10 C16 9.01 16 8.02 16 7 C17.65 7.66 19.3 8.32 21 9 C20.67 6.69 20.34 4.38 20 2 C19.2265625 2.01160156 18.453125 2.02320312 17.65625 2.03515625 C11.66063636 2.08709845 5.92697017 1.91184156 0 1 C0 0.67 0 0.34 0 0 Z " fill="#8A3137" transform="translate(139,91)"/>
<path d="M0 0 C1.32 0 2.64 0 4 0 C5.7354802 5.20644061 3.3487911 10.21664733 1 15 C-1.30820287 17.11585263 -3.03039193 17.85784305 -6 19 C-6 17.68 -6 16.36 -6 15 C-5.01 15 -4.02 15 -3 15 C-3.66 14.67 -4.32 14.34 -5 14 C-3.45730076 9.27934033 -1.92205381 4.58335908 0 0 Z " fill="#A21921" transform="translate(188,189)"/>
<path d="M0 0 C0.33 0.66 0.66 1.32 1 2 C1.66 2 2.32 2 3 2 C4.10662809 12.72199662 0.8243792 22.77664871 -2 33 C-2.66 33 -3.32 33 -4 33 C-4 32.34 -4 31.68 -4 31 C-4.66 30.67 -5.32 30.34 -6 30 C-6 28.35 -6 26.7 -6 25 C-5.01 24.67 -4.02 24.34 -3 24 C-3.061875 22.824375 -3.061875 22.824375 -3.125 21.625 C-3 19 -3 19 -1 17 C-0.57544209 14.93221967 -0.57544209 14.93221967 -0.4375 12.625 C-0.24559971 10.2830332 -0.03330698 8.12900592 0.5546875 5.8515625 C1.09597121 3.60096183 0.69993452 2.17757407 0 0 Z " fill="#7B1820" transform="translate(105,169)"/>
<path d="M0 0 C0.66 0 1.32 0 2 0 C2 7.59 2 15.18 2 23 C0.68 23 -0.64 23 -2 23 C-2.0580476 19.72924117 -2.09361165 16.45861476 -2.125 13.1875 C-2.14175781 12.25873047 -2.15851562 11.32996094 -2.17578125 10.37304688 C-2.18222656 9.48037109 -2.18867187 8.58769531 -2.1953125 7.66796875 C-2.20578613 6.84578857 -2.21625977 6.0236084 -2.22705078 5.17651367 C-2 3 -2 3 0 0 Z " fill="#6A1D24" transform="translate(35,133)"/>
<path d="M0 0 C2 1 2 1 2 1 Z M-3 3 C-1.02 3 0.96 3 3 3 C-2.52912981 9.45065145 -9.89224564 11.57363581 -18 13 C-17.125 8.25 -17.125 8.25 -16 6 C-15.34 6 -14.68 6 -14 6 C-14 6.66 -14 7.32 -14 8 C-13.34 8 -12.68 8 -12 8 C-11.67 7.01 -11.34 6.02 -11 5 C-10.67 5.99 -10.34 6.98 -10 8 C-9.21625 7.505 -8.4325 7.01 -7.625 6.5 C-5 5 -5 5 -3 5 C-3 4.34 -3 3.68 -3 3 Z " fill="#591013" transform="translate(61,115)"/>
<path d="M0 0 C0.33 0 0.66 0 1 0 C1.17015625 1.06476563 1.3403125 2.12953125 1.515625 3.2265625 C2.92247656 11.74161293 4.64890543 19.89706493 7.23046875 28.14453125 C8 31 8 31 8 35 C7.34 35 6.68 35 6 35 C6 33.68 6 32.36 6 31 C5.34 31 4.68 31 4 31 C2.35153771 27.34268286 1.69123838 24.2450298 1.4375 20.25 C1.48764046 16.81311556 1.48764046 16.81311556 0 14 C-0.07271741 11.64686445 -0.08370868 9.29166332 -0.0625 6.9375 C-0.05347656 5.64714844 -0.04445312 4.35679687 -0.03515625 3.02734375 C-0.02355469 2.02832031 -0.01195312 1.02929688 0 0 Z " fill="#9A2931" transform="translate(37,151)"/>
<path d="M0 0 C1.31223496 3.93670488 0.24296256 6.12488144 -1 10 C-0.01 9.67 0.98 9.34 2 9 C2.33 8.01 2.66 7.02 3 6 C3.66 6 4.32 6 5 6 C5.66 5.34 6.32 4.68 7 4 C6.67 6.64 6.34 9.28 6 12 C5.34 12 4.68 12 4 12 C4 13.65 4 15.3 4 17 C3.34 16.34 2.68 15.68 2 15 C-0.57061311 14.35232207 -0.57061311 14.35232207 -3 14 C-3.29341888 8.32723489 -3.00559652 5.00932754 0 0 Z " fill="#9C171E" transform="translate(175,170)"/>
<path d="M0 0 C-0.33 1.32 -0.66 2.64 -1 4 C-1.845625 4.103125 -2.69125 4.20625 -3.5625 4.3125 C-8.2505386 5.25010772 -12.54674803 6.54674803 -16 10 C-16.24212873 11.98128508 -16.24212873 11.98128508 -16.125 14.125 C-16.063125 16.043125 -16.063125 16.043125 -16 18 C-16.66 18.33 -17.32 18.66 -18 19 C-18 15.7 -18 12.4 -18 9 C-18.66 8.67 -19.32 8.34 -20 8 C-17.45815189 4.18722783 -14.73531562 3.61184334 -10.5625 2.3125 C-9.88123047 2.08755859 -9.19996094 1.86261719 -8.49804688 1.63085938 C-5.55629475 0.68292945 -3.10881477 0 0 0 Z " fill="#521014" transform="translate(61,130)"/>
<path d="M0 0 C1.21006673 3.6302002 0.62502995 4.94045347 -0.4375 8.5625 C-1.94251328 14.17893594 -2.34557973 19.21473932 -2 25 C-1.01 24.67 -0.02 24.34 1 24 C0.25 25.9375 0.25 25.9375 -1 28 C-3.078125 28.62890625 -3.078125 28.62890625 -5 29 C-5.56058103 5.92274758 -5.56058103 5.92274758 -1.42578125 1.203125 C-0.95527344 0.80609375 -0.48476563 0.4090625 0 0 Z " fill="#640B10" transform="translate(58,86)"/>
<path d="M0 0 C1.32 0.66 2.64 1.32 4 2 C3 5 3 5 1.45581055 6.34106445 C-0.63156566 8.71968618 -0.34254271 10.41980938 -0.29296875 13.54296875 C-0.28330078 14.61611328 -0.27363281 15.68925781 -0.26367188 16.79492188 C-0.23853516 17.91447266 -0.21339844 19.03402344 -0.1875 20.1875 C-0.17396484 21.31865234 -0.16042969 22.44980469 -0.14648438 23.61523438 C-0.11109958 26.41063317 -0.06172948 29.20507892 0 32 C-0.66 32 -1.32 32 -2 32 C-2.21688524 27.7648504 -2.41377195 23.52939029 -2.59204102 19.29248047 C-2.65553381 17.85082063 -2.7245198 16.40939195 -2.79907227 14.96826172 C-2.90519707 12.89847185 -2.99163842 10.82865857 -3.07421875 8.7578125 C-3.13182373 7.5114502 -3.18942871 6.26508789 -3.2487793 4.98095703 C-3.16668213 3.99724121 -3.08458496 3.01352539 -3 2 C-2.01 1.34 -1.02 0.68 0 0 Z " fill="#BA1D26" transform="translate(76,121)"/>
<path d="M0 0 C2.04795423 1.9626228 2.94976638 3.4277307 3.19921875 6.26953125 C3.18858877 8.51954383 3.12958525 10.75385562 3 13 C2.01 13.33 1.02 13.66 0 14 C-0.33 13.34 -0.66 12.68 -1 12 C-9.25 11.67 -17.5 11.34 -26 11 C-26 10.67 -26 10.34 -26 10 C-17.09 10 -8.18 10 1 10 C0.67 9.01 0.34 8.02 0 7 C-0.03954234 4.66700175 -0.04401732 2.33291811 0 0 Z " fill="#6E171E" transform="translate(129,192)"/>
<path d="M0 0 C-3.62331363 2.41554242 -5.75001136 2.35289611 -10.0625 2.5625 C-14.69539273 2.63367711 -14.69539273 2.63367711 -19 4 C-20.87379605 4.07033769 -22.75001102 4.0843022 -24.625 4.0625 C-25.62789063 4.05347656 -26.63078125 4.04445313 -27.6640625 4.03515625 C-28.43492188 4.02355469 -29.20578125 4.01195312 -30 4 C-30.33 4.66 -30.66 5.32 -31 6 C-31.66 5.34 -32.32 4.68 -33 4 C-21.7972724 0.28134929 -11.78075795 -0.15082051 0 0 Z " fill="#B53B45" transform="translate(124,36)"/>
<path d="M0 0 C3.60181703 3.34215115 6.32320498 7.05934183 9.125 11.0625 C9.56714844 11.68705078 10.00929688 12.31160156 10.46484375 12.95507812 C12.34427899 15.61524552 14.19322014 18.28983021 16 21 C14.68 21 13.36 21 12 21 C10 18.83984375 10 18.83984375 8 15.9375 C7.3090625 14.93589844 6.618125 13.93429688 5.90625 12.90234375 C0 3.90983607 0 3.90983607 0 0 Z " fill="#6C2226" transform="translate(55,207)"/>
<path d="M0 0 C0.33 0 0.66 0 1 0 C1 1.98 1 3.96 1 6 C1.66 5.67 2.32 5.34 3 5 C2.67 8.3 2.34 11.6 2 15 C1.01 15 0.02 15 -1 15 C-1.33 13.68 -1.66 12.36 -2 11 C-2.33 11.99 -2.66 12.98 -3 14 C-3.33 10.37 -3.66 6.74 -4 3 C-3.67 3.66 -3.34 4.32 -3 5 C-2.34 5 -1.68 5 -1 5 C-0.67 3.35 -0.34 1.7 0 0 Z " fill="#A92F39" transform="translate(197,156)"/>
<path d="M0 0 C0 2.83967231 -0.40267181 5.23735711 -1 8 C-1.77214844 8.0721875 -2.54429688 8.144375 -3.33984375 8.21875 C-6.13088223 8.74013006 -6.13088223 8.74013006 -7.44140625 11.03125 C-7.99634766 12.25328125 -7.99634766 12.25328125 -8.5625 13.5 C-9.69140625 15.96875 -9.69140625 15.96875 -11 18 C-13.15234375 18.78125 -13.15234375 18.78125 -15 19 C-11.29612146 11.59224292 -5.82539223 5.82539223 0 0 Z " fill="#982128" transform="translate(67,55)"/>
<path d="M0 0 C0 3 0 3 -1 5 C-1.03101558 8.57565316 -0.93225468 12.14038891 -0.83984375 15.71484375 C-1 19 -1 19 -3 22 C-4.8212144 16.10783577 -5.64425228 11.04808879 -4 5 C-1.9375 1.9375 -1.9375 1.9375 0 0 Z " fill="#99333A" transform="translate(129,165)"/>
<path d="M0 0 C1.16480606 2.84049196 1.03340859 3.91167984 -0.07421875 6.83984375 C-0.60660156 7.86207031 -1.13898438 8.88429687 -1.6875 9.9375 C-2.20699219 10.95714844 -2.72648438 11.97679687 -3.26171875 13.02734375 C-4.95882001 15.92957758 -6.83253777 18.43587802 -9 21 C-9.99 20.67 -10.98 20.34 -12 20 C-11.38511719 19.05898437 -10.77023438 18.11796875 -10.13671875 17.1484375 C-9.32014844 15.8907315 -8.50375139 14.632913 -7.6875 13.375 C-7.28337891 12.75753906 -6.87925781 12.14007813 -6.46289062 11.50390625 C-4.04721466 7.77237427 -1.91255628 4.02317664 0 0 Z " fill="#7B181E" transform="translate(182,197)"/>
<path d="M0 0 C0.33 0.66 0.66 1.32 1 2 C-2.63 2 -6.26 2 -10 2 C-10.66 3.65 -11.32 5.3 -12 7 C-13.39722854 10.3932693 -14.94487541 11.96325027 -18 14 C-18.66 13.67 -19.32 13.34 -20 13 C-18.04708528 10.29544801 -16.0395727 7.63973405 -14 5 C-12.8553125 3.515 -12.8553125 3.515 -11.6875 2 C-7.86757167 -0.84273736 -4.60525636 -0.45149572 0 0 Z " fill="#84323A" transform="translate(84,91)"/>
<path d="M0 0 C0.99 0.33 1.98 0.66 3 1 C3 6.61 3 12.22 3 18 C2.67 17.34 2.34 16.68 2 16 C1.34 16 0.68 16 0 16 C0 10.72 0 5.44 0 0 Z " fill="#5E0B13" transform="translate(196,132)"/>
<path d="M0 0 C0.66 0 1.32 0 2 0 C2 0.99 2 1.98 2 3 C2.66 3 3.32 3 4 3 C4.28875 3.804375 4.5775 4.60875 4.875 5.4375 C5.73262568 8.1326468 5.73262568 8.1326468 8 9 C8 9.66 8 10.32 8 11 C8.99 11.33 9.98 11.66 11 12 C11.33 14.31 11.66 16.62 12 19 C6.55005944 14.37580801 3.23492352 8.31136375 0 2 C0 1.34 0 0.68 0 0 Z " fill="#70151D" transform="translate(47,212)"/>
<path d="M0 0 C0.94101563 0.00322266 1.88203125 0.00644531 2.8515625 0.00976562 C3.83640625 0.01814453 4.82125 0.02652344 5.8359375 0.03515625 C6.82851562 0.03966797 7.82109375 0.04417969 8.84375 0.04882812 C11.2995391 0.0606348 13.75520854 0.07710225 16.2109375 0.09765625 C16.2109375 0.75765625 16.2109375 1.41765625 16.2109375 2.09765625 C8.6209375 2.42765625 1.0309375 2.75765625 -6.7890625 3.09765625 C-6.7890625 2.43765625 -6.7890625 1.77765625 -6.7890625 1.09765625 C-4.33631109 -0.12871945 -2.7384844 -0.01649689 0 0 Z " fill="#C32028" transform="translate(108.7890625,45.90234375)"/>
<path d="M0 0 C0.33 0.99 0.66 1.98 1 3 C0.01 3.66 -0.98 4.32 -2 5 C-2.33777149 7.75900757 -2.48897979 10.30483257 -2.51171875 13.0703125 C-2.52966995 13.86654022 -2.54762115 14.66276794 -2.56611633 15.48312378 C-2.62036969 18.0303617 -2.65416212 20.57741071 -2.6875 23.125 C-2.72065993 24.8502868 -2.75514834 26.57554861 -2.79101562 28.30078125 C-2.87610435 32.53371813 -2.94284307 36.76659753 -3 41 C-3.33 41 -3.66 41 -4 41 C-4.09895826 35.80393014 -4.17150993 30.60841002 -4.21972656 25.41162109 C-4.2398285 23.64427128 -4.26711472 21.87698787 -4.30175781 20.10986328 C-4.35034009 17.56786715 -4.37298226 15.02675104 -4.390625 12.484375 C-4.41127014 11.69569031 -4.43191528 10.90700562 -4.45318604 10.09442139 C-4.45470477 6.37219988 -4.3401694 4.42517073 -1.97558594 1.46972656 C-1.32364258 0.9847168 -0.67169922 0.49970703 0 0 Z " fill="#901F24" transform="translate(76,118)"/>
<path d="M0 0 C0.66 0.33 1.32 0.66 2 1 C2 2.32 2 3.64 2 5 C2.66 4.01 3.32 3.02 4 2 C4 4.31 4 6.62 4 9 C2.35 9.33 0.7 9.66 -1 10 C-1 9.34 -1 8.68 -1 8 C-1.66 8 -2.32 8 -3 8 C-3 7.34 -3 6.68 -3 6 C-3.99 5.67 -4.98 5.34 -6 5 C-5.34 5 -4.68 5 -4 5 C-3.67 4.34 -3.34 3.68 -3 3 C-2.34 3 -1.68 3 -1 3 C-0.67 2.01 -0.34 1.02 0 0 Z " fill="#A02229" transform="translate(47,195)"/>
<path d="M0 0 C0.33 0 0.66 0 1 0 C1.28476563 17.2125 1.28476563 17.2125 -1.4375 21 C-3 22 -3 22 -5 22 C-4.72285156 20.91460937 -4.44570312 19.82921875 -4.16015625 18.7109375 C-3.7941437 17.26565719 -3.4282654 15.82034288 -3.0625 14.375 C-2.88009766 13.66214844 -2.69769531 12.94929687 -2.50976562 12.21484375 C-1.48683201 8.16030687 -0.62042633 4.14052941 0 0 Z " fill="#94242B" transform="translate(193,162)"/>
<path d="M0 0 C1.32 0.99 2.64 1.98 4 3 C3.67 4.32 3.34 5.64 3 7 C0.525 6.01 0.525 6.01 -2 5 C-2.33 6.32 -2.66 7.64 -3 9 C-4.65 8.67 -6.3 8.34 -8 8 C-6.54098339 4.15350168 -4.5612873 2.91761624 -1 1 C-0.67 0.67 -0.34 0.34 0 0 Z " fill="#C5202A" transform="translate(73,53)"/>
<path d="M0 0 C0 0.33 0 0.66 0 1 C-0.82242188 1.23074219 -1.64484375 1.46148437 -2.4921875 1.69921875 C-9.03415905 3.61044139 -15.00256902 5.75224737 -20.9765625 9.046875 C-23 10 -23 10 -26 10 C-26 9.34 -26 8.68 -26 8 C-23.96023786 7.03761964 -21.91809954 6.08027473 -19.875 5.125 C-18.16957031 4.32449219 -18.16957031 4.32449219 -16.4296875 3.5078125 C-10.68008226 0.98008172 -6.31784057 -0.25271362 0 0 Z " fill="#A4252F" transform="translate(106,49)"/>
<path d="M0 0 C0.86625 0.556875 0.86625 0.556875 1.75 1.125 C0.43 1.125 -0.89 1.125 -2.25 1.125 C-2.25 1.785 -2.25 2.445 -2.25 3.125 C-1.59 3.125 -0.93 3.125 -0.25 3.125 C1.13938077 5.08647874 2.4760411 7.08666576 3.75 9.125 C3.42 9.785 3.09 10.445 2.75 11.125 C1.24147143 10.03251403 -0.25662831 8.92561501 -1.75 7.8125 C-2.5853125 7.19761719 -3.420625 6.58273438 -4.28125 5.94921875 C-4.9309375 5.34722656 -5.580625 4.74523437 -6.25 4.125 C-6.25 3.135 -6.25 2.145 -6.25 1.125 C-2.80384615 -1.09038462 -2.80384615 -1.09038462 0 0 Z " fill="#671C20" transform="translate(94.25,232.875)"/>
<path d="M0 0 C0.33 0 0.66 0 1 0 C1 2.31 1 4.62 1 7 C1.66 7 2.32 7 3 7 C3.09752461 12.46137814 2.77249145 17.59255982 2 23 C1.34 23 0.68 23 0 23 C0 15.41 0 7.82 0 0 Z " fill="#9E323A" transform="translate(171,177)"/>
<path d="M0 0 C0.33 0.66 0.66 1.32 1 2 C1.66 2.33 2.32 2.66 3 3 C1.92643323 4.15498897 0.84070212 5.29867867 -0.25 6.4375 C-0.85328125 7.07558594 -1.4565625 7.71367187 -2.078125 8.37109375 C-5.01098726 10.85687334 -7.22201924 11 -11 11 C-10.34 9.68 -9.68 8.36 -9 7 C-8.34 7.33 -7.68 7.66 -7 8 C-7 7.34 -7 6.68 -7 6 C-6.401875 5.938125 -5.80375 5.87625 -5.1875 5.8125 C-2.12856542 4.6763243 -1.44958901 2.82669858 0 0 Z " fill="#B02631" transform="translate(108,147)"/>
<path d="M0 0 C0.66 0.66 1.32 1.32 2 2 C-0.64 8.93 -3.28 15.86 -6 23 C-6.33 23 -6.66 23 -7 23 C-7 21.02 -7 19.04 -7 17 C-6.34 17 -5.68 17 -5 17 C-5 15.35 -5 13.7 -5 12 C-4.34 12 -3.68 12 -3 12 C-2.95101562 11.30132812 -2.90203125 10.60265625 -2.8515625 9.8828125 C-2.73941406 8.51769531 -2.73941406 8.51769531 -2.625 7.125 C-2.55539063 6.22007812 -2.48578125 5.31515625 -2.4140625 4.3828125 C-2 2 -2 2 0 0 Z " fill="#8B212E" transform="translate(184,170)"/>
<path d="M0 0 C1.6286551 0.42369072 3.25287378 0.8644623 4.875 1.3125 C5.77992187 1.55613281 6.68484375 1.79976563 7.6171875 2.05078125 C10 3 10 3 12 6 C14.56282742 6.72965366 14.56282742 6.72965366 17 7 C16.67 7.99 16.34 8.98 16 10 C16.66 10 17.32 10 18 10 C17.67 10.66 17.34 11.32 17 12 C14.16302122 10.19315697 11.33105592 8.37860662 8.5 6.5625 C7.28376953 5.7880957 7.28376953 5.7880957 6.04296875 4.99804688 C5.27597656 4.50498047 4.50898437 4.01191406 3.71875 3.50390625 C3.00654297 3.04830322 2.29433594 2.5927002 1.56054688 2.12329102 C1.04556641 1.75260498 0.53058594 1.38191895 0 1 C0 0.67 0 0.34 0 0 Z " fill="#591E22" transform="translate(85,257)"/>
<path d="M0 0 C2.475 0.495 2.475 0.495 5 1 C4.67 5.29 4.34 9.58 4 14 C0.8105004 9.2157506 -0.26863974 5.77575443 0 0 Z " fill="#98252F" transform="translate(50,175)"/>
<path d="M0 0 C2 2 2 2 2.1953125 4.6015625 C2.17210937 5.59929687 2.14890625 6.59703125 2.125 7.625 C2.10695312 8.62789062 2.08890625 9.63078125 2.0703125 10.6640625 C2.03550781 11.82035156 2.03550781 11.82035156 2 13 C1.01 13.495 1.01 13.495 0 14 C-4.06516496 12.02235218 -6.91367389 9.2626876 -10 6 C-9.67 5.34 -9.34 4.68 -9 4 C-8.51789063 4.42152344 -8.03578125 4.84304687 -7.5390625 5.27734375 C-6.90742188 5.82519531 -6.27578125 6.37304688 -5.625 6.9375 C-4.99851563 7.48277344 -4.37203125 8.02804688 -3.7265625 8.58984375 C-2.04367666 10.06958624 -2.04367666 10.06958624 0 11 C0 7.37 0 3.74 0 0 Z " fill="#5D181E" transform="translate(177,100)"/>
<path d="M0 0 C2.64 0 5.28 0 8 0 C8 0.33 8 0.66 8 1 C6.35 1.33 4.7 1.66 3 2 C3.33 2.66 3.66 3.32 4 4 C2.02 5.32 0.04 6.64 -2 8 C-1.47731534 5.23723823 -0.89130413 2.6739124 0 0 Z M-4 5 C-3.34 5.33 -2.68 5.66 -2 6 C-3.65 7.32 -5.3 8.64 -7 10 C-6.625 8.0625 -6.625 8.0625 -6 6 C-5.34 5.67 -4.68 5.34 -4 5 Z " fill="#D82330" transform="translate(84,111)"/>
<path d="M0 0 C0.66 0 1.32 0 2 0 C2 4.62 2 9.24 2 14 C1.67 13.34 1.34 12.68 1 12 C0.34 12 -0.32 12 -1 12 C-1.02687279 10.18757948 -1.04633715 8.37504767 -1.0625 6.5625 C-1.07410156 5.55316406 -1.08570313 4.54382813 -1.09765625 3.50390625 C-1 1 -1 1 0 0 Z " fill="#451115" transform="translate(35,133)"/>
<path d="M0 0 C0.99 0.33 1.98 0.66 3 1 C4.12862175 6.36095333 4.09688221 11.55306686 4 17 C3.34 17.33 2.68 17.66 2 18 C1.34 12.06 0.68 6.12 0 0 Z " fill="#7C484D" transform="translate(58,133)"/>
<path d="M0 0 C0.66 0 1.32 0 2 0 C4.43326039 10.81838074 4.43326039 10.81838074 2.625 15.75 C2.08875 16.4925 1.5525 17.235 1 18 C0.67 18 0.34 18 0 18 C0 12.06 0 6.12 0 0 Z " fill="#6F2D2E" transform="translate(42,109)"/>
<path d="M0 0 C1.32 0 2.64 0 4 0 C4.33 2.64 4.66 5.28 5 8 C5.66 8 6.32 8 7 8 C6.67 8.66 6.34 9.32 6 10 C5.01 10 4.02 10 3 10 C-0.22265625 4.82421875 -0.22265625 4.82421875 -1 3 C-0.67 2.01 -0.34 1.02 0 0 Z " fill="#8E1B24" transform="translate(169,75)"/>
<path d="M0 0 C3.66075376 -0.3327958 5.39500988 -0.46170299 8.375 1.8125 C10 4 10 4 10 7 C10.99 7.33 11.98 7.66 13 8 C12.34 8.66 11.68 9.32 11 10 C9.5409857 8.70910257 8.08281149 7.41725561 6.625 6.125 C5.81289062 5.40570313 5.00078125 4.68640625 4.1640625 3.9453125 C2.74204921 2.66704062 1.35205414 1.35205414 0 0 Z " fill="#AB3740" transform="translate(150,59)"/>
<path d="M0 0 C6.57315478 -0.36517527 11.79485526 0.86380263 18 3 C17.67 3.66 17.34 4.32 17 5 C10.80481527 4.58411954 5.73310689 3.39748106 0 1 C0 0.67 0 0.34 0 0 Z " fill="#AC2E38" transform="translate(124,37)"/>
<path d="M0 0 C6.64615385 1.47692308 6.64615385 1.47692308 8.4375 4.125 C8.7159375 5.053125 8.7159375 5.053125 9 6 C9.66 6 10.32 6 11 6 C11 6.66 11 7.32 11 8 C9.02 8.33 7.04 8.66 5 9 C4.9175 8.443125 4.835 7.88625 4.75 7.3125 C3.77389987 4.30285794 2.04811186 2.37845248 0 0 Z " fill="#AC323C" transform="translate(127,154)"/>
<path d="M0 0 C1.64671412 0.30782496 3.29235576 0.62139234 4.9375 0.9375 C5.85402344 1.11152344 6.77054688 1.28554687 7.71484375 1.46484375 C10 2 10 2 11 3 C11.14115161 5.67058851 11.04247107 8.32432238 11 11 C10.01 11 9.02 11 8 11 C8 8.69 8 6.38 8 4 C5.36 3.01 2.72 2.02 0 1 C0 0.67 0 0.34 0 0 Z " fill="#4F1418" transform="translate(180,133)"/>
<path d="M0 0 C0.66 0 1.32 0 2 0 C0.49223521 4.22174141 -2.15164062 5.88717524 -6 8 C-8.875 8.25 -8.875 8.25 -11 8 C-7.85214347 4.5823272 -5.41881673 2.47293891 -1 1 C-0.67 0.67 -0.34 0.34 0 0 Z " fill="#691C1D" transform="translate(70,111)"/>
<path d="M0 0 C0.66 0.33 1.32 0.66 2 1 C-3.75 6 -3.75 6 -6 6 C-6.2475 6.61875 -6.495 7.2375 -6.75 7.875 C-8.20628639 10.35068687 -9.37812506 10.95125002 -12 12 C-11.71855013 8.79580145 -10.99711793 7.99753608 -8.49609375 5.859375 C-7.48675781 5.16328125 -6.47742188 4.4671875 -5.4375 3.75 C-4.42558594 3.04359375 -3.41367188 2.3371875 -2.37109375 1.609375 C-1.58863281 1.07828125 -0.80617188 0.5471875 0 0 Z " fill="#AA2933" transform="translate(80,45)"/>
<path d="M0 0 C0.33 0 0.66 0 1 0 C1.04898438 0.6290625 1.09796875 1.258125 1.1484375 1.90625 C1.52144735 6.17656968 1.97006932 10.23909959 3.125 14.375 C3.95527861 17.81472567 3.99399124 18.822028 3 22 C-1.18309772 15.72535343 -0.12073497 7.29775834 0 0 Z " fill="#5E2125" transform="translate(42,139)"/>
<path d="M0 0 C3.38428841 1.0502964 4.02867109 2.05324631 5.75 5.25 C6.93511657 8.80534972 7.27096425 11.29682186 7 15 C6.01 15.495 6.01 15.495 5 16 C4.67 13.36 4.34 10.72 4 8 C3.01 7.67 2.02 7.34 1 7 C0.67 4.69 0.34 2.38 0 0 Z " fill="#8E242A" transform="translate(127,188)"/>
<path d="M0 0 C3.42674999 3.42674999 2.86202231 8.32757374 3 13 C2.82128629 15.72751162 2.45844541 18.3002659 2 21 C1.67 21 1.34 21 1 21 C-0.10087193 13.98194143 -0.09733092 7.09434233 0 0 Z " fill="#631117" transform="translate(43,96)"/>
<path d="M0 0 C0 0.66 0 1.32 0 2 C-2.01171875 3.4375 -2.01171875 3.4375 -4.6875 5 C-5.55761719 5.515625 -6.42773438 6.03125 -7.32421875 6.5625 C-9.83647195 7.91214843 -12.33203915 9.00011557 -15 10 C-13.64625203 5.93875609 -11.73741172 5.39684351 -8.0625 3.3125 C-6.98097656 2.68988281 -5.89945313 2.06726563 -4.78515625 1.42578125 C-2 0 -2 0 0 0 Z " fill="#500F11" transform="translate(136,251)"/>
<path d="M0 0 C1.82142946 1.06825188 3.63192912 2.15515702 5.4375 3.25 C6.44683594 3.85328125 7.45617187 4.4565625 8.49609375 5.078125 C11 7 11 7 11.84765625 9.234375 C11.92306641 10.10835937 11.92306641 10.10835937 12 11 C8.56247993 9.4722133 5.81046312 7.49818944 3 5 C3 4.34 3 3.68 3 3 C2.01 3 1.02 3 0 3 C0 2.01 0 1.02 0 0 Z " fill="#A72830" transform="translate(152,45)"/>
<path d="M0 0 C2.203125 0.9140625 2.203125 0.9140625 4 2 C-1.22771463 5.04157942 -4.92671312 6.50610724 -11 6 C-11.33 5.34 -11.66 4.68 -12 4 C-9.03 4.495 -9.03 4.495 -6 5 C-6 4.34 -6 3.68 -6 3 C-3.25 1.375 -3.25 1.375 0 0 Z " fill="#4D0D11" transform="translate(124,268)"/>
<path d="M0 0 C0.33 0 0.66 0 1 0 C1.5599503 3.12201225 2.09481495 6.24780684 2.625 9.375 C2.78484375 10.26445312 2.9446875 11.15390625 3.109375 12.0703125 C3.25117187 12.92109375 3.39296875 13.771875 3.5390625 14.6484375 C3.67521973 15.43395996 3.81137695 16.21948242 3.95166016 17.02880859 C3.9676123 17.67930176 3.98356445 18.32979492 4 19 C3.34 19.66 2.68 20.32 2 21 C-0.62096065 14.11997829 -0.18170362 7.27823961 0 0 Z " fill="#922F37" transform="translate(37,151)"/>
<path d="M0 0 C0.99 0.33 1.98 0.66 3 1 C0.03 5.95 0.03 5.95 -3 11 C-3.66 10.34 -4.32 9.68 -5 9 C-4.73441476 5.14901402 -2.43956652 2.83304499 0 0 Z " fill="#811B22" transform="translate(64,73)"/>
<path d="M0 0 C0 4.31618166 -2.13270348 5.92789659 -5 9 C-5.66 9 -6.32 9 -7 9 C-7.66 10.32 -8.32 11.64 -9 13 C-9.66 13 -10.32 13 -11 13 C-9.46356148 9.31930113 -7.21849055 7.01224796 -4.375 4.25 C-3.55773437 3.45078125 -2.74046875 2.6515625 -1.8984375 1.828125 C-0.95871094 0.92320312 -0.95871094 0.92320312 0 0 Z " fill="#5A1317" transform="translate(161,228)"/>
<path d="M0 0 C0.66 0.66 1.32 1.32 2 2 C1.625 4.625 1.625 4.625 1 7 C-3.3177458 6.49202991 -7.03302114 5.80317221 -11 4 C-11 3.67 -11 3.34 -11 3 C-3.375 3.875 -3.375 3.875 0 5 C0 3.35 0 1.7 0 0 Z " fill="#622F2F" transform="translate(189,121)"/>
<path d="M0 0 C0.763125 0.825 1.52625 1.65 2.3125 2.5 C4.75434142 5.34055197 4.75434142 5.34055197 8 5 C8.33 6.32 8.66 7.64 9 9 C9.66 9 10.32 9 11 9 C10.67 9.66 10.34 10.32 10 11 C6.37 8.36 2.74 5.72 -1 3 C-0.67 2.01 -0.34 1.02 0 0 Z " fill="#5D171C" transform="translate(164,112)"/>
<path d="M0 0 C2.0625 0.4375 2.0625 0.4375 4 1 C3.01 1.495 3.01 1.495 2 2 C1.5875 2.804375 1.175 3.60875 0.75 4.4375 C-1.4564248 7.66833631 -3.27731611 8.0900106 -7 9 C-6.02180976 7.68677212 -5.0424189 6.37443848 -4.0625 5.0625 C-3.51722656 4.33160156 -2.97195312 3.60070312 -2.41015625 2.84765625 C-1 1 -1 1 0 0 Z " fill="#B5353E" transform="translate(83,109)"/>
<path d="M0 0 C2.85471337 2.39732836 3.63112402 4.37764742 4.375 8 C4.66503906 9.299375 4.66503906 9.299375 4.9609375 10.625 C5 13 5 13 3.5390625 14.8125 C3.03117188 15.204375 2.52328125 15.59625 2 16 C1.93941406 15.34773438 1.87882813 14.69546875 1.81640625 14.0234375 C1.36480009 9.31283783 0.85804961 4.65798362 0 0 Z " fill="#6C0D13" transform="translate(177,96)"/>
<path d="M0 0 C-1.40552299 1.03612271 -2.82491694 2.05344925 -4.25 3.0625 C-5.43335938 3.91521484 -5.43335938 3.91521484 -6.640625 4.78515625 C-9 6 -9 6 -11.296875 5.68359375 C-11.85890625 5.45800781 -12.4209375 5.23242188 -13 5 C-11.68 4.67 -10.36 4.34 -9 4 C-9 3.01 -9 2.02 -9 1 C-2.25 -1.125 -2.25 -1.125 0 0 Z " fill="#540F13" transform="translate(143,261)"/>
<path d="M0 0 C0 0.99 0 1.98 0 3 C-1.65 3.33 -3.3 3.66 -5 4 C-5.99 2.35 -6.98 0.7 -8 -1 C-4.37673261 -2.2077558 -3.35853631 -1.54311128 0 0 Z " fill="#610D12" transform="translate(105,242)"/>
<path d="M0 0 C0.33 0 0.66 0 1 0 C1.04898438 0.73605469 1.09796875 1.47210938 1.1484375 2.23046875 C1.22320312 3.20628906 1.29796875 4.18210938 1.375 5.1875 C1.44460937 6.15042969 1.51421875 7.11335937 1.5859375 8.10546875 C2.00317604 11.02220232 2.88015033 13.29142051 4 16 C4 16.99 4 17.98 4 19 C2.015625 18.01171875 2.015625 18.01171875 0 16 C-0.29561076 13.12961948 -0.37943016 10.66245255 -0.25 7.8125 C-0.23195313 7.06291016 -0.21390625 6.31332031 -0.1953125 5.54101562 C-0.14824109 3.6934629 -0.07649766 1.84656841 0 0 Z " fill="#700C13" transform="translate(73,205)"/>
<path d="M0 0 C0.99 0 1.98 0 3 0 C3.28875 0.639375 3.5775 1.27875 3.875 1.9375 C4.82823451 4.15206079 4.82823451 4.15206079 7 5 C6.67 6.32 6.34 7.64 6 9 C3.35247996 6.42215154 1.05567935 4.08351902 -1 1 C-0.67 0.67 -0.34 0.34 0 0 Z " fill="#741E24" transform="translate(60,231)"/>
<path d="M0 0 C0.33 0 0.66 0 1 0 C0.67 2.31 0.34 4.62 0 7 C-0.33 6.34 -0.66 5.68 -1 5 C-2.32 5.33 -3.64 5.66 -5 6 C-5 6.66 -5 7.32 -5 8 C-5.66 8 -6.32 8 -7 8 C-6.67 6.68 -6.34 5.36 -6 4 C-5.34 4 -4.68 4 -4 4 C-4 3.34 -4 2.68 -4 2 C-3.01 2 -2.02 2 -1 2 C-0.67 1.34 -0.34 0.68 0 0 Z " fill="#A01823" transform="translate(194,180)"/>
<path d="M0 0 C0.86625 -0.00515625 1.7325 -0.0103125 2.625 -0.015625 C5 0.25 5 0.25 8 2.25 C7.67 3.24 7.34 4.23 7 5.25 C6.67 4.59 6.34 3.93 6 3.25 C2.72444392 2.77998967 2.72444392 2.77998967 -1.0625 2.625 C-2.99802734 2.51285156 -2.99802734 2.51285156 -4.97265625 2.3984375 C-6.47119141 2.32496094 -6.47119141 2.32496094 -8 2.25 C-4.76085771 0.09057181 -3.75140267 -0.02232978 0 0 Z " fill="#BE1E28" transform="translate(120,144.75)"/>
<path d="M0 0 C1.23922223 3.71766668 0.57018942 5.43889537 -0.4375 9.1875 C-0.72496094 10.27417969 -1.01242188 11.36085938 -1.30859375 12.48046875 C-1.65083984 13.72763672 -1.65083984 13.72763672 -2 15 C-2.33 15 -2.66 15 -3 15 C-3.08107583 13.06318839 -3.13922475 11.1254066 -3.1875 9.1875 C-3.22230469 8.10855469 -3.25710937 7.02960938 -3.29296875 5.91796875 C-3 3 -3 3 -1.48828125 1.11328125 C-0.99714844 0.74589844 -0.50601563 0.37851563 0 0 Z " fill="#69171C" transform="translate(58,86)"/>
<path d="M0 0 C3.49258493 3.49258493 4.92091065 7.5500285 5.1875 12.4375 C5.125625 13.283125 5.06375 14.12875 5 15 C4.34 14.67 3.68 14.34 3 14 C2.59270772 11.67843403 2.25561323 9.3431213 2 7 C1.34 7 0.68 7 0 7 C0 4.69 0 2.38 0 0 Z " fill="#881D25" transform="translate(45,186)"/>
<path d="M0 0 C1.15224028 0.92961422 2.29659176 1.8690125 3.4375 2.8125 C4.07558594 3.33457031 4.71367188 3.85664063 5.37109375 4.39453125 C7 6 7 6 8 9 C5.6875 8.875 5.6875 8.875 3 8 C0 3.13793103 0 3.13793103 0 0 Z " fill="#A3313C" transform="translate(100,162)"/>
<path d="M0 0 C1.65 0 3.3 0 5 0 C5 0.66 5 1.32 5 2 C5.969375 2.268125 6.93875 2.53625 7.9375 2.8125 C8.948125 3.204375 9.95875 3.59625 11 4 C11.33 4.99 11.66 5.98 12 7 C7.69235185 5.43358249 3.93828536 3.31663844 0 1 C0 0.67 0 0.34 0 0 Z " fill="#571D1F" transform="translate(102,246)"/>
<path d="M0 0 C3 0 3 0 4.6875 1.5 C5.120625 1.995 5.55375 2.49 6 3 C6.33 2.34 6.66 1.68 7 1 C7.99 2.32 8.98 3.64 10 5 C7.39417629 5.93065133 6.35801776 6.14917407 3.75 5.0625 C3.1725 4.711875 2.595 4.36125 2 4 C2 3.34 2 2.68 2 2 C1.34 2 0.68 2 0 2 C0 1.34 0 0.68 0 0 Z " fill="#D13D4A" transform="translate(150,116)"/>
<path d="M0 0 C5.75 -0.125 5.75 -0.125 8 1 C8 1.66 8 2.32 8 3 C8.99 3.33 9.98 3.66 11 4 C11 4.66 11 5.32 11 6 C7.2089881 4.55049545 3.6125362 2.84827434 0 1 C0 0.67 0 0.34 0 0 Z " fill="#A3222D" transform="translate(140,53)"/>
<path d="M0 0 C0.99 0.33 1.98 0.66 3 1 C2.67 1.66 2.34 2.32 2 3 C1.34 3 0.68 3 0 3 C0 4.32 0 5.64 0 7 C-1.32 7 -2.64 7 -4 7 C-3.43628586 3.73045798 -2.50037734 2.17424117 0 0 Z " fill="#681A20" transform="translate(148,240)"/>
<path d="M0 0 C0.99 0 1.98 0 3 0 C3.1953125 6.0546875 3.1953125 6.0546875 3 8 C2.34 8.66 1.68 9.32 1 10 C-0.60725635 6.78548731 -0.05748185 3.56387464 0 0 Z " fill="#96575A" transform="translate(59,159)"/>
<path d="M0 0 C-0.6875 1.9375 -0.6875 1.9375 -2 4 C-4.625 4.75 -4.625 4.75 -7 5 C-6.6875 3.0625 -6.6875 3.0625 -6 1 C-3 0 -3 0 0 0 Z " fill="#651C25" transform="translate(148,232)"/>
<path d="M0 0 C3.25524265 3.02272532 5.61820737 6.25718301 8 10 C7.67 10.66 7.34 11.32 7 12 C3.09549153 9.39699435 2.1201087 7.1671102 0 3 C0 2.01 0 1.02 0 0 Z " fill="#69151B" transform="translate(55,207)"/>
<path d="M0 0 C3.32310483 1.16757737 5.83361132 2.14948857 8 5 C8 5.99 8 6.98 8 8 C7.01 7.67 6.02 7.34 5 7 C5 6.34 5 5.68 5 5 C4.01 4.67 3.02 4.34 2 4 C0.8125 1.9375 0.8125 1.9375 0 0 Z " fill="#B52232" transform="translate(148,111)"/>
<path d="M0 0 C2.9375 1.625 2.9375 1.625 6 4 C6.875 7.25 6.875 7.25 7 10 C6.34 9.67 5.68 9.34 5 9 C5 8.34 5 7.68 5 7 C4.34 7 3.68 7 3 7 C0 2.61538462 0 2.61538462 0 0 Z " fill="#931A24" transform="translate(172,64)"/>
<path d="M0 0 C2.0625 0.4375 2.0625 0.4375 4 1 C3.01 2.98 2.02 4.96 1 7 C-2 7 -2 7 -4 6 C-2.68 5.34 -1.36 4.68 0 4 C-0.33 3.01 -0.66 2.02 -1 1 C-0.67 0.67 -0.34 0.34 0 0 Z " fill="#6A191D" transform="translate(136,249)"/>
<path d="M0 0 C1.32 0.66 2.64 1.32 4 2 C2.86695008 5.39914975 1.87481525 6.05254451 -1 8 C-1.93065133 5.39417629 -2.14917407 4.35801776 -1.0625 1.75 C-0.711875 1.1725 -0.36125 0.595 0 0 Z " fill="#D6242C" transform="translate(76,121)"/>
<path d="M0 0 C-4.39285714 3.05059524 -4.39285714 3.05059524 -7.25 2.8125 C-9 2 -9 2 -10 0 C-3.375 -1.125 -3.375 -1.125 0 0 Z " fill="#4E0E12" transform="translate(123,251)"/>
<path d="M0 0 C0.66 0 1.32 0 2 0 C2.33 1.65 2.66 3.3 3 5 C3.66 5 4.32 5 5 5 C5 6.98 5 8.96 5 11 C2.03947516 7.63576723 1.07710178 4.30840713 0 0 Z " fill="#78161E" transform="translate(42,201)"/>
<path d="M0 0 C-0.33 1.98 -0.66 3.96 -1 6 C-2.98 5.34 -4.96 4.68 -7 4 C-6.67 3.34 -6.34 2.68 -6 2 C-5.34 2.33 -4.68 2.66 -4 3 C-4 2.34 -4 1.68 -4 1 C-2 0 -2 0 0 0 Z " fill="#AC282F" transform="translate(193,185)"/>
<path d="M0 0 C0 0.99 0 1.98 0 3 C-0.99 3.33 -1.98 3.66 -3 4 C-2.67 5.32 -2.34 6.64 -2 8 C-3.65 8 -5.3 8 -7 8 C-5.08864614 4.46399535 -3.37357234 2.21027154 0 0 Z " fill="#6E0D14" transform="translate(67,103)"/>
<path d="M0 0 C1.32 0 2.64 0 4 0 C2.84826645 2.46800047 1.95216435 4.04783565 0 6 C-0.99 6 -1.98 6 -3 6 C-3 5.34 -3 4.68 -3 4 C-2.01 4 -1.02 4 0 4 C0 2.68 0 1.36 0 0 Z " fill="#74262C" transform="translate(159,243)"/>
<path d="M0 0 C0.99 0 1.98 0 3 0 C2.67 2.31 2.34 4.62 2 7 C1.01 6.67 0.02 6.34 -1 6 C-1.042721 4.33388095 -1.04063832 2.66617115 -1 1 C-0.67 0.67 -0.34 0.34 0 0 Z " fill="#8A141B" transform="translate(100,193)"/>
<path d="M0 0 C3.37462715 0.54723683 5.08235 1.0549 8 3 C5.13822943 4.43088528 3.06624227 3.59991697 0 3 C-0.33 3.66 -0.66 4.32 -1 5 C-0.67 3.35 -0.34 1.7 0 0 Z " fill="#572B2C" transform="translate(172,130)"/>
<path d="M0 0 C0.33 0 0.66 0 1 0 C1.33 3.3 1.66 6.6 2 10 C2.99 9.67 3.98 9.34 5 9 C4.34 10.32 3.68 11.64 3 13 C2.01 12.67 1.02 12.34 0 12 C0 8.04 0 4.08 0 0 Z " fill="#591418" transform="translate(54,101)"/>
<path d="M0 0 C1.32 0 2.64 0 4 0 C4 1.32 4 2.64 4 4 C4.99 4 5.98 4 7 4 C6.67 5.32 6.34 6.64 6 8 C3.87961365 5.38485683 1.86908256 2.80362384 0 0 Z " fill="#983138" transform="translate(162,69)"/>
<path d="M0 0 C0.99 0.33 1.98 0.66 3 1 C1.02 3.31 -0.96 5.62 -3 8 C-3.33 6.68 -3.66 5.36 -4 4 C-2.0625 1.75 -2.0625 1.75 0 0 Z " fill="#871921" transform="translate(71,65)"/>
<path d="M0 0 C1.64846769 0.44876616 3.29373455 0.90930488 4.9375 1.375 C5.85402344 1.63023437 6.77054687 1.88546875 7.71484375 2.1484375 C10 3 10 3 11 5 C9.234375 5.6484375 9.234375 5.6484375 7 6 C5.078125 5.0390625 5.078125 5.0390625 3.25 3.625 C2.63640625 3.16351563 2.0228125 2.70203125 1.390625 2.2265625 C0.93171875 1.82179688 0.4728125 1.41703125 0 1 C0 0.67 0 0.34 0 0 Z " fill="#5F2528" transform="translate(85,257)"/>
<path d="M0 0 C0.66 0 1.32 0 2 0 C2 0.99 2 1.98 2 3 C2.66 3 3.32 3 4 3 C4 4.65 4 6.3 4 8 C3.34 8 2.68 8 2 8 C0.74335022 5.09399739 0 3.20395416 0 0 Z " fill="#851B24" transform="translate(39,192)"/>
<path d="M0 0 C0.33 0.66 0.66 1.32 1 2 C1.66 2.33 2.32 2.66 3 3 C0.03 5.475 0.03 5.475 -3 8 C-3 4.42424104 -1.91159393 2.94704065 0 0 Z " fill="#B74E57" transform="translate(108,147)"/>
<path d="M0 0 C0.99 0.33 1.98 0.66 3 1 C3 2.65 3 4.3 3 6 C2.34 6 1.68 6 1 6 C0.67 6.66 0.34 7.32 0 8 C0 5.36 0 2.72 0 0 Z " fill="#4B2026" transform="translate(196,132)"/>
<path d="M0 0 C0 3 0 3 -2.5 5.6875 C-3.325 6.450625 -4.15 7.21375 -5 8 C-5 6.68 -5 5.36 -5 4 C-4.34 4 -3.68 4 -3 4 C-2.67 3.01 -2.34 2.02 -2 1 C-1.34 0.67 -0.68 0.34 0 0 Z " fill="#6C161D" transform="translate(78,102)"/>
<path d="M0 0 C0.66 0 1.32 0 2 0 C0.375 5.75 0.375 5.75 -3 8 C-1.125 1.125 -1.125 1.125 0 0 Z " fill="#84181E" transform="translate(186,189)"/>
<path d="M0 0 C0.66 0 1.32 0 2 0 C2.33 1.98 2.66 3.96 3 6 C2.01 6.33 1.02 6.66 0 7 C-0.38133299 5.0085944 -0.71325582 3.00720923 -1 1 C-0.67 0.67 -0.34 0.34 0 0 Z " fill="#8D2D38" transform="translate(175,87)"/>
<path d="M0 0 C1.32 0.33 2.64 0.66 4 1 C1.6875 3.0625 1.6875 3.0625 -1 5 C-1.99 4.67 -2.98 4.34 -4 4 C-3.34 4 -2.68 4 -2 4 C-2 3.34 -2 2.68 -2 2 C-1.34 2 -0.68 2 0 2 C0 1.34 0 0.68 0 0 Z " fill="#571219" transform="translate(147,254)"/>
<path d="M0 0 C2.66666667 1.33333333 5.33333333 2.66666667 8 4 C7.67 4.99 7.34 5.98 7 7 C5.83040013 6.02433888 4.66438823 5.044375 3.5 4.0625 C2.8503125 3.51722656 2.200625 2.97195312 1.53125 2.41015625 C1.0259375 1.94480469 0.520625 1.47945312 0 1 C0 0.67 0 0.34 0 0 Z " fill="#5C1619" transform="translate(71,245)"/>
<path d="M0 0 C3.36591866 1.44253657 5.51047079 3.33264727 8 6 C6.68 6 5.36 6 4 6 C4 5.34 4 4.68 4 4 C3.34 4 2.68 4 2 4 C1.34 2.68 0.68 1.36 0 0 Z " fill="#601417" transform="translate(71,230)"/>
<path d="M0 0 C0.33 0.66 0.66 1.32 1 2 C-0.4375 4.625 -0.4375 4.625 -2 7 C-2.66 6.67 -3.32 6.34 -4 6 C-3.67 4.68 -3.34 3.36 -3 2 C-2.34 2.33 -1.68 2.66 -1 3 C-0.67 2.01 -0.34 1.02 0 0 Z " fill="#7A1A21" transform="translate(176,193)"/>
<path d="M0 0 C0.66 0.66 1.32 1.32 2 2 C1.01 3.98 0.02 5.96 -1 8 C-1.33 8 -1.66 8 -2 8 C-2.125 5.125 -2.125 5.125 -2 2 C-1.34 1.34 -0.68 0.68 0 0 Z " fill="#7A1923" transform="translate(184,170)"/>
<path d="M0 0 C0.66 0.99 1.32 1.98 2 3 C1.195625 3.12375 0.39125 3.2475 -0.4375 3.375 C-1.7059375 3.684375 -1.7059375 3.684375 -3 4 C-3.33 4.66 -3.66 5.32 -4 6 C-4.33 5.01 -4.66 4.02 -5 3 C-4.34 2.34 -3.68 1.68 -3 1 C-2.34 1 -1.68 1 -1 1 C-0.67 0.67 -0.34 0.34 0 0 Z " fill="#A91B21" transform="translate(74,61)"/>
<path d="M0 0 C-3.96 1.98 -3.96 1.98 -8 4 C-8.33 3.01 -8.66 2.02 -9 1 C-5.19495213 -0.79682816 -4.29399165 -1.07349791 0 0 Z " fill="#AD2F3C" transform="translate(89,56)"/>
<path d="M0 0 C0.33 0.66 0.66 1.32 1 2 C1.66 2.33 2.32 2.66 3 3 C-1.455 3.495 -1.455 3.495 -6 4 C-4.03617993 2.49440461 -2.21736634 1.10868317 0 0 Z " fill="#C34955" transform="translate(88,41)"/>
<path d="" fill="#000000" transform="translate(0,0)"/>
<path d="" fill="#000000" transform="translate(0,0)"/>
<path d="" fill="#000000" transform="translate(0,0)"/>
<path d="" fill="#000000" transform="translate(0,0)"/>
<path d="" fill="#000000" transform="translate(0,0)"/>
<path d="" fill="#000000" transform="translate(0,0)"/>
<path d="" fill="#000000" transform="translate(0,0)"/>
<path d="" fill="#000000" transform="translate(0,0)"/>
<path d="" fill="#000000" transform="translate(0,0)"/>
<path d="" fill="#000000" transform="translate(0,0)"/>
<path d="" fill="#000000" transform="translate(0,0)"/>
<path d="" fill="#000000" transform="translate(0,0)"/>
<path d="" fill="#000000" transform="translate(0,0)"/>
<path d="" fill="#000000" transform="translate(0,0)"/>
<path d="" fill="#000000" transform="translate(0,0)"/>
<path d="" fill="#000000" transform="translate(0,0)"/>
<path d="" fill="#000000" transform="translate(0,0)"/>
<path d="" fill="#000000" transform="translate(0,0)"/>
<path d="" fill="#000000" transform="translate(0,0)"/>
<path d="" fill="#FF0000" transform="translate(0,0)"/>
<path d="" fill="#FF0000" transform="translate(0,0)"/>
<path d="" fill="#FF0000" transform="translate(0,0)"/>
<path d="" fill="#000000" transform="translate(0,0)"/>
<path d="" fill="#000000" transform="translate(0,0)"/>
<path d="" fill="#000000" transform="translate(0,0)"/>
<path d="" fill="#000000" transform="translate(0,0)"/>
<path d="" fill="#00FF00" transform="translate(0,0)"/>
<path d="" fill="#000000" transform="translate(0,0)"/>
<path d="" fill="#FF0000" transform="translate(0,0)"/>
<path d="" fill="#FF0000" transform="translate(0,0)"/>
<path d="" fill="#00FF00" transform="translate(0,0)"/>
<path d="" fill="#000000" transform="translate(0,0)"/>
<path d="" fill="#000000" transform="translate(0,0)"/>
<path d="" fill="#000000" transform="translate(0,0)"/>
<path d="" fill="#000000" transform="translate(0,0)"/>
<path d="" fill="#000000" transform="translate(0,0)"/>
<path d="" fill="#000000" transform="translate(0,0)"/>
<path d="" fill="#000000" transform="translate(0,0)"/>
<path d="" fill="#000000" transform="translate(0,0)"/>
<path d="" fill="#0000FF" transform="translate(0,0)"/>
<path d="" fill="#0000FF" transform="translate(0,0)"/>
<path d="" fill="#000000" transform="translate(0,0)"/>
<path d="" fill="#FF0000" transform="translate(0,0)"/>
<path d="" fill="#000000" transform="translate(0,0)"/>
<path d="" fill="#000000" transform="translate(0,0)"/>
<path d="" fill="#000000" transform="translate(0,0)"/>
<path d="" fill="#000000" transform="translate(0,0)"/>
<path d="" fill="#000000" transform="translate(0,0)"/>
<path d="" fill="#00FF00" transform="translate(0,0)"/>
<path d="" fill="#000000" transform="translate(0,0)"/>
<path d="" fill="#000000" transform="translate(0,0)"/>
<path d="" fill="#000000" transform="translate(0,0)"/>
<path d="" fill="#00FF00" transform="translate(0,0)"/>
<path d="" fill="#000000" transform="translate(0,0)"/>
<path d="" fill="#000000" transform="translate(0,0)"/>
<path d="" fill="#000000" transform="translate(0,0)"/>
<path d="" fill="#000000" transform="translate(0,0)"/>
<path d="" fill="#000000" transform="translate(0,0)"/>
<path d="" fill="#000000" transform="translate(0,0)"/>
<path d="" fill="#000000" transform="translate(0,0)"/>
<path d="" fill="#000000" transform="translate(0,0)"/>
</svg>
